<?xml version="1.0" encoding="UTF-8"?>
<!DOCTYPE svg PUBLIC "-//W3C//DTD SVG 1.1//EN" "http://www.w3.org/Graphics/SVG/1.1/DTD/svg11.dtd">
<!-- Creator: CorelDRAW 2020 (64-Bit) -->
<svg xmlns="http://www.w3.org/2000/svg" xml:space="preserve" width="129.777mm" height="114.244mm" version="1.1" style="shape-rendering:geometricPrecision; text-rendering:geometricPrecision; image-rendering:optimizeQuality; fill-rule:evenodd; clip-rule:evenodd"
viewBox="0 0 14382.11 12660.75"
 xmlns:xlink="http://www.w3.org/1999/xlink"
 xmlns:xodm="http://www.corel.com/coreldraw/odm/2003">
 <defs>
  <style type="text/css">
   <![CDATA[
    .fil5 {fill:#E6E7E8}
    .fil0 {fill:black}
    .fil7 {fill:black}
    .fil3 {fill:#F7BA12}
    .fil1 {fill:#FED325}
    .fil4 {fill:#FEFFFD}
    .fil6 {fill:red}
    .fil2 {fill:#FFFF99}
    .fil8 {fill:#FFFFFB}
    .fil9 {fill:white}
   ]]>
  </style>
 </defs>
 <g id="Capa_x0020_1">
  <metadata id="CorelCorpID_0Corel-Layer"/>
  <path class="fil0" d="M7191.04 12660.75c-2798.54,0 -5661.83,-480.2 -6945.24,-3447.35 -590.73,-1365.75 -57.34,-3015.82 967.84,-4366.66 -228.76,-738.18 -806.5,-4237.66 369.91,-4739.19 1059.65,-451.75 2544.05,618.05 3167.08,1383.35 713.87,-319.8 1563.83,-544.62 2440.42,-560.65 876.6,16.02 1726.56,240.85 2440.42,560.65 623.04,-765.29 2107.43,-1835.1 3167.09,-1383.35 1176.4,501.52 598.67,4001 369.91,4739.19 1025.17,1350.84 1558.57,3000.94 967.84,4366.66 -1283.41,2967.15 -4146.74,3447.35 -6945.28,3447.35z"/>
  <path class="fil1" d="M7191.05 12414.88c990.21,-7.9 2029.05,-122.66 3190.67,-372.84 1809.71,-389.74 3777.72,-2164.96 3748.69,-4103.26 -16.37,-1092.74 -590.87,-2149.76 -1211.41,-3039.13 55.93,-983.54 890.63,-3488.11 -93.28,-4397.84 -983.88,-909.68 -2766.37,773.19 -3167.1,1383.37 -811.65,-480.98 -1639.6,-718.27 -2467.58,-726.49 -827.98,8.22 -1655.9,245.51 -2467.56,726.49 -400.72,-610.17 -2183.21,-2293.05 -3167.1,-1383.37 -983.9,909.73 -149.2,3414.29 -93.27,4397.84 -620.54,889.37 -1195.05,1946.39 -1211.41,3039.13 -29.05,1938.3 1938.97,3713.51 3748.67,4103.26 1161.66,250.18 2200.47,364.94 3190.67,372.84z"/>
  <path class="fil2" d="M2986.95 423.02c-2363.81,-803.13 -1566.49,3183.44 -1144.34,4449.91 -422.23,985.21 -750.63,1735.84 -750.63,2767.96l-838.83 239.67c35.4,-1072.04 600.44,-2107.33 1209.95,-2980.9 -55.93,-983.54 -890.63,-3488.11 93.27,-4397.84 395.14,-365.34 919.07,-312.35 1430.58,-78.81z"/>
  <path class="fil3" d="M11395.95 422.65c2362.38,-801.42 1565.28,3184 1143.19,4450.28 422.23,985.21 750.63,1735.84 750.63,2767.96 0,4081.57 -4363.05,5160.61 -9842.75,4155.08l21.87 93.67c177.34,63.15 355.15,114.43 531.48,152.41 1161.66,250.18 2200.47,364.94 3190.67,372.84 990.21,-7.9 2029.05,-122.66 3190.67,-372.84 1809.71,-389.74 3777.72,-2164.96 3748.69,-4103.26 -16.37,-1092.74 -590.87,-2149.76 -1211.41,-3039.13 55.93,-983.54 890.63,-3488.11 -93.28,-4397.84 -394.93,-365.15 -918.51,-312.41 -1429.77,-79.17z"/>
  <path class="fil4" d="M7191.05 12414.88c-990.21,-7.9 -2029.04,-122.66 -3190.67,-372.84 -1809.7,-389.74 -3777.72,-2164.96 -3748.67,-4103.26 1.93,-129.62 11.78,-258.74 28.6,-387.16 880.58,-234.12 2100.25,302.26 2876.13,843.61 333.45,232.65 662.49,202.99 960.47,-73.62 1937.44,-1798.5 4210.86,-1798.51 6148.3,0 297.99,276.61 627.02,306.27 960.47,73.62 775.88,-541.35 1995.55,-1077.73 2876.13,-843.61 16.82,128.42 26.67,257.54 28.6,387.16 29.04,1938.3 -1938.97,3713.51 -3748.69,4103.26 -1161.65,250.18 -2200.47,364.94 -3190.67,372.84z"/>
  <path class="fil5" d="M7191.05 12414.88c-990.21,-7.9 -2029.04,-122.66 -3190.67,-372.84 -176.33,-37.98 -354.14,-89.27 -531.48,-152.41l-21.87 -93.67c5479.7,1005.53 9842.75,-73.51 9842.75,-4155.08 0,-40.39 -0.51,-80.33 -1.51,-119.89 286.55,-40.14 563.7,-35.8 813.53,30.63 16.82,128.42 26.67,257.54 28.6,387.16 29.04,1938.3 -1938.97,3713.51 -3748.69,4103.26 -1161.65,250.18 -2200.47,364.94 -3190.67,372.84z"/>
  <path class="fil0" d="M3796.59 2147.57c-796.57,410.61 -1164.11,986.61 -1574.62,1546.02 -610.95,-1855.5 -402.46,-3391.93 1574.62,-1546.02z"/>
  <path class="fil0" d="M10585.51 2147.57c796.57,410.61 1164.11,986.61 1574.61,1546.02 610.96,-1855.5 402.47,-3391.93 -1574.61,-1546.02z"/>
  <path class="fil6" d="M12628.33 8172.87c-617.54,-109.95 -1207.31,301.56 -1317.25,919.1 -109.95,617.56 301.56,1207.32 919.1,1317.26 617.56,109.95 1207.32,-301.56 1317.26,-919.1 109.95,-617.56 -301.56,-1207.32 -919.11,-1317.26z"/>
  <path class="fil6" d="M1753.77 8172.87c617.56,-109.95 1207.32,301.56 1317.26,919.1 109.95,617.56 -301.56,1207.32 -919.1,1317.26 -617.56,109.95 -1207.32,-301.56 -1317.26,-919.1 -109.95,-617.56 301.56,-1207.32 919.1,-1317.26z"/>
  <polygon class="fil2" points="7011.6,5467.95 6798.82,6911.13 8129.28,4543.5 7316.33,4657.07 7519.29,2949.43 6198.66,5581.52 "/>
  <path class="fil7" d="M10052.84 6691.97c-570.02,0 -1032.12,-462.09 -1032.12,-1032.12 0,-570.02 462.09,-1032.12 1032.12,-1032.12 570.02,0 1032.12,462.09 1032.12,1032.12 0,570.02 -462.09,1032.12 -1032.12,1032.12z"/>
  <path class="fil4" d="M8795.65 3938.05c-39.74,487.32 1868.88,387.31 1912.17,-55.47 43.29,-442.77 -1872.44,-431.85 -1912.17,55.47z"/>
  <path class="fil7" d="M4329.24 6691.97c570.02,0 1032.12,-462.09 1032.12,-1032.12 0,-570.02 -462.09,-1032.12 -1032.12,-1032.12 -570.02,0 -1032.12,462.09 -1032.12,1032.12 0,570.02 462.09,1032.12 1032.12,1032.12z"/>
  <path class="fil4" d="M5586.42 3938.05c39.74,487.32 -1868.88,387.31 -1912.17,-55.47 -43.29,-442.77 1872.44,-431.85 1912.17,55.47z"/>
  <path class="fil0" d="M7191.04 12056.25c1363.21,0 1730.68,-1881.07 1706.18,-2981.92 114.3,-77.33 222.36,-163.72 322.65,-259.45l-285.17 -198.27c-435.81,360.14 -1007.79,544.48 -1571.33,592.74l-10.13 -727.7c417.54,-65.07 808.82,-415.5 792.24,-701.41 -14.25,-245.45 -474.18,-352.38 -954.44,-346.6 -480.26,-5.78 -940.16,101.15 -954.41,346.6 -16.58,285.91 374.7,636.34 792.23,701.41l-10.12 727.7c-563.54,-48.26 -1135.54,-232.6 -1571.34,-592.74l-285.16 198.27c100.28,95.73 208.35,182.11 322.65,259.45 -24.5,1100.79 342.97,2981.92 1706.15,2981.92z"/>
  <path class="fil6" d="M7191.07 10759.75c-309.08,-68.69 -632.15,-11.91 -926.04,249.74 205.32,993.31 1646.71,993.31 1852.03,0 -293.88,-261.65 -616.92,-318.42 -925.99,-249.74z"/>
  <path class="fil8" d="M7191.04 7902.04c-205.57,-3.76 -411.14,-56.73 -407.35,-143.81 3.45,-79.47 205.51,-115.2 407.35,-115.57 201.84,0.37 403.9,36.09 407.35,115.57 3.79,87.08 -201.77,140.06 -407.35,143.81z"/>
  <path class="fil9" d="M4451.73 4801.44c257.23,-0.07 465.82,208.41 465.87,465.65 0.06,257.24 -208.42,465.81 -465.66,465.86 -257.23,0.07 -465.81,-208.41 -465.86,-465.64 -0.06,-257.24 208.42,-465.82 465.65,-465.87z"/>
  <path class="fil9" d="M3846.19 5802.85c139.29,-0.03 252.23,112.86 252.26,252.14 0.03,139.29 -112.86,252.23 -252.14,252.26 -139.29,0.03 -252.23,-112.86 -252.26,-252.14 -0.03,-139.29 112.86,-252.23 252.14,-252.26z"/>
  <path class="fil9" d="M4724.11 6013.58c63.56,-0.01 115.09,51.49 115.1,115.04 0.02,63.56 -51.49,115.09 -115.04,115.11 -63.56,0.01 -115.09,-51.5 -115.1,-115.06 -0.02,-63.56 51.49,-115.09 115.04,-115.1z"/>
  <path class="fil9" d="M9942.36 4801.44c-257.23,-0.07 -465.82,208.41 -465.87,465.65 -0.06,257.24 208.42,465.81 465.66,465.86 257.23,0.07 465.81,-208.41 465.86,-465.64 0.06,-257.24 -208.42,-465.82 -465.65,-465.87z"/>
  <path class="fil9" d="M10547.9 5802.85c-139.29,-0.03 -252.23,112.86 -252.26,252.14 -0.03,139.29 112.86,252.23 252.14,252.26 139.29,0.03 252.23,-112.86 252.26,-252.14 0.03,-139.29 -112.86,-252.23 -252.14,-252.26z"/>
  <path class="fil9" d="M9669.98 6013.58c-63.56,-0.01 -115.09,51.49 -115.1,115.04 -0.02,63.56 51.49,115.09 115.04,115.11 63.56,0.01 115.09,-51.5 115.1,-115.06 0.02,-63.56 -51.49,-115.09 -115.04,-115.1z"/>
 </g>
</svg>
