<?xml version="1.0" encoding="UTF-8"?>
<!DOCTYPE svg PUBLIC "-//W3C//DTD SVG 1.1//EN" "http://www.w3.org/Graphics/SVG/1.1/DTD/svg11.dtd">
<!-- Creator: CorelDRAW 2020 (64-Bit) -->
<svg xmlns="http://www.w3.org/2000/svg" xml:space="preserve" width="129.777mm" height="114.244mm" version="1.1" style="shape-rendering:geometricPrecision; text-rendering:geometricPrecision; image-rendering:optimizeQuality; fill-rule:evenodd; clip-rule:evenodd"
viewBox="0 0 1449.53 1276.04"
 xmlns:xlink="http://www.w3.org/1999/xlink"
 xmlns:xodm="http://www.corel.com/coreldraw/odm/2003">
 <defs>
  <style type="text/css">
   <![CDATA[
    .fil5 {fill:#E6E7E8}
    .fil0 {fill:black}
    .fil8 {fill:black}
    .fil3 {fill:#F7BA12}
    .fil1 {fill:#FED325}
    .fil4 {fill:#FEFFFD}
    .fil6 {fill:red}
    .fil9 {fill:red}
    .fil2 {fill:#FFFF99}
    .fil7 {fill:white}
   ]]>
  </style>
 </defs>
 <g id="Capa_x0020_1">
  <metadata id="CorelCorpID_0Corel-Layer"/>
  <path class="fil0" d="M724.77 1276.04c-282.06,0 -570.64,-48.4 -699.99,-347.45 -59.54,-137.65 -5.78,-303.96 97.55,-440.1 -23.06,-74.4 -81.28,-427.1 37.28,-477.65 106.8,-45.53 256.41,62.29 319.2,139.42 71.95,-32.23 157.61,-54.89 245.96,-56.51 88.35,1.62 174.02,24.27 245.96,56.51 62.79,-77.13 212.4,-184.95 319.2,-139.42 118.57,50.55 60.34,403.25 37.28,477.65 103.32,136.15 157.08,302.46 97.55,440.1 -129.35,299.05 -417.94,347.45 -700,347.45z"/>
  <path class="fil1" d="M724.77 1251.26c99.8,-0.8 204.5,-12.36 321.58,-37.58 182.4,-39.28 380.75,-218.2 377.82,-413.56 -1.65,-110.13 -59.55,-216.67 -122.09,-306.31 5.64,-99.13 89.76,-351.56 -9.4,-443.25 -99.16,-91.68 -278.82,77.93 -319.2,139.43 -81.8,-48.48 -165.25,-72.39 -248.7,-73.22 -83.45,0.83 -166.89,24.74 -248.7,73.22 -40.39,-61.5 -220.04,-231.11 -319.2,-139.43 -99.16,91.69 -15.04,344.12 -9.4,443.25 -62.54,89.64 -120.45,196.17 -122.09,306.31 -2.93,195.36 195.42,374.27 377.82,413.56 117.08,25.22 221.78,36.78 321.58,37.58z"/>
  <path class="fil2" d="M301.05 42.63c-238.24,-80.95 -157.88,320.85 -115.33,448.49 -42.56,99.3 -75.65,174.95 -75.65,278.97l-84.54 24.16c3.57,-108.05 60.52,-212.39 121.95,-300.44 -5.64,-99.13 -89.76,-351.56 9.4,-443.25 39.82,-36.82 92.63,-31.48 144.18,-7.94z"/>
  <path class="fil3" d="M1148.57 42.6c238.1,-80.77 157.76,320.91 115.22,448.53 42.56,99.3 75.65,174.95 75.65,278.97 0,411.37 -439.74,520.12 -992.02,418.78l2.2 9.44c17.87,6.36 35.79,11.53 53.57,15.36 117.08,25.22 221.78,36.78 321.58,37.58 99.8,-0.8 204.5,-12.36 321.58,-37.58 182.4,-39.28 380.75,-218.2 377.82,-413.56 -1.65,-110.13 -59.55,-216.67 -122.09,-306.31 5.64,-99.13 89.76,-351.56 -9.4,-443.25 -39.8,-36.8 -92.57,-31.49 -144.1,-7.98z"/>
  <path class="fil4" d="M724.77 1251.26c-99.8,-0.8 -204.5,-12.36 -321.58,-37.58 -182.39,-39.28 -380.75,-218.2 -377.82,-413.56 0.19,-13.06 1.19,-26.08 2.88,-39.02 88.75,-23.6 211.68,30.46 289.88,85.03 33.61,23.45 66.77,20.46 96.8,-7.42 195.27,-181.27 424.4,-181.27 619.67,0 30.03,27.88 63.2,30.87 96.8,7.42 78.2,-54.56 201.13,-108.62 289.88,-85.03 1.7,12.94 2.69,25.96 2.88,39.02 2.93,195.36 -195.42,374.27 -377.82,413.56 -117.08,25.22 -221.78,36.78 -321.58,37.58z"/>
  <path class="fil5" d="M724.77 1251.26c-99.8,-0.8 -204.5,-12.36 -321.58,-37.58 -17.77,-3.83 -35.69,-9 -53.57,-15.36l-2.2 -9.44c552.28,101.34 992.02,-7.41 992.02,-418.78 0,-4.07 -0.05,-8.1 -0.15,-12.08 28.88,-4.05 56.81,-3.61 81.99,3.09 1.7,12.94 2.69,25.96 2.88,39.02 2.93,195.36 -195.42,374.27 -377.82,413.56 -117.08,25.22 -221.78,36.78 -321.58,37.58z"/>
  <path class="fil0" d="M382.65 216.45c-80.28,41.38 -117.33,99.44 -158.7,155.82 -61.58,-187.01 -40.56,-341.86 158.7,-155.82z"/>
  <path class="fil0" d="M1066.89 216.45c80.28,41.38 117.33,99.44 158.7,155.82 61.58,-187.01 40.56,-341.86 -158.7,-155.82z"/>
  <path class="fil6" d="M1272.78 823.72c-62.24,-11.08 -121.68,30.39 -132.76,92.63 -11.08,62.24 30.39,121.68 92.63,132.76 62.24,11.08 121.68,-30.39 132.76,-92.63 11.08,-62.24 -30.39,-121.68 -92.63,-132.76z"/>
  <path class="fil6" d="M176.76 823.72c62.24,-11.08 121.68,30.39 132.76,92.63 11.08,62.24 -30.39,121.68 -92.63,132.76 -62.24,11.08 -121.68,-30.39 -132.76,-92.63 -11.08,-62.24 30.39,-121.68 92.63,-132.76z"/>
  <path class="fil0" d="M971.55 621.08c-28.65,10.37 -50.44,74.41 -75.55,57.96 -25.11,-16.45 10.07,-86.27 55.72,-102.79 45.65,-16.53 131.06,16.77 119.58,41.28 -11.48,24.51 -71.1,-6.81 -99.75,3.56z"/>
  <path class="fil4" d="M884.36 505.53c-4.01,49.12 188.36,39.04 192.72,-5.59 4.36,-44.63 -188.72,-43.53 -192.72,5.59z"/>
  <path class="fil0" d="M477.96 621.08c28.65,10.37 50.44,74.41 75.55,57.96 25.11,-16.45 -10.07,-86.27 -55.72,-102.79 -45.65,-16.53 -131.06,16.77 -119.58,41.28 11.48,24.51 71.1,-6.81 99.75,3.56z"/>
  <path class="fil4" d="M565.14 505.53c4.01,49.12 -188.36,39.04 -192.72,-5.59 -4.36,-44.63 188.72,-43.53 192.72,5.59z"/>
  <polygon class="fil2" points="706.68,551.1 685.23,696.55 819.33,457.93 737.39,469.37 757.85,297.26 624.75,562.55 "/>
  <path class="fil7" d="M724.77 796.25c-20.72,-0.38 -41.44,-5.72 -41.06,-14.49 0.35,-8.01 20.71,-11.61 41.06,-11.65 20.34,0.04 40.71,3.64 41.06,11.65 0.38,8.78 -20.34,14.12 -41.06,14.49z"/>
  <path class="fil8" d="M724.77 963.97l122.94 47.28c0,108.75 -78.33,189.14 -122.94,189.14 -44.61,0 -122.94,-80.38 -122.94,-189.14l122.94 -47.28z"/>
  <path class="fil9" d="M724.77 1176.75c25.06,0 94.57,-75.65 99.3,-170.22l-99.3 -42.56 -99.3 42.56c4.73,94.57 74.24,170.22 99.3,170.22z"/>
  <path class="fil8" d="M710.58 1049.08c0,7.83 6.35,14.19 14.19,14.19 7.83,0 14.19,-6.35 14.19,-14.19l0 -94.57 -28.37 0 0 94.57z"/>
  <path class="fil8" d="M724.77 997.07c-23.64,37.83 -165.49,94.57 -198.59,-42.56 -8.08,-33.46 27.49,-34.43 33.05,-13.31 28.41,107.88 147.41,41.81 148.17,-13.19l1.02 -73.34c-42.08,-6.56 -81.52,-41.88 -79.85,-70.69 1.44,-24.74 47.79,-35.52 96.19,-34.93 48.4,-0.58 94.76,10.19 96.19,34.93 1.67,28.82 -37.77,64.13 -79.85,70.69l1.02 73.34c0.77,55 119.76,121.07 148.17,13.19 5.56,-21.12 41.13,-20.14 33.05,13.31 -33.1,137.12 -174.95,80.38 -198.59,42.56z"/>
 </g>
</svg>
