<?xml version="1.0" encoding="UTF-8"?>
<!DOCTYPE svg PUBLIC "-//W3C//DTD SVG 1.1//EN" "http://www.w3.org/Graphics/SVG/1.1/DTD/svg11.dtd">
<!-- Creator: CorelDRAW 2020 (64-Bit) -->
<svg xmlns="http://www.w3.org/2000/svg" xml:space="preserve" width="129.777mm" height="114.244mm" version="1.1" style="shape-rendering:geometricPrecision; text-rendering:geometricPrecision; image-rendering:optimizeQuality; fill-rule:evenodd; clip-rule:evenodd"
viewBox="0 0 3779.56 3327.2"
 xmlns:xlink="http://www.w3.org/1999/xlink"
 xmlns:xodm="http://www.corel.com/coreldraw/odm/2003">
 <defs>
  <style type="text/css">
   <![CDATA[
    .fil5 {fill:#E6E7E8}
    .fil0 {fill:black}
    .fil3 {fill:#F7BA12}
    .fil1 {fill:#FED325}
    .fil4 {fill:#FEFFFD}
    .fil6 {fill:red}
    .fil2 {fill:#FFFF99}
    .fil7 {fill:#FFFFFB}
   ]]>
  </style>
 </defs>
 <g id="Capa_x0020_1">
  <metadata id="CorelCorpID_0Corel-Layer"/>
  <path class="fil0" d="M1889.78 3327.2c-735.45,0 -1487.91,-126.2 -1825.18,-905.95 -155.24,-358.91 -15.07,-792.55 254.34,-1147.54 -60.12,-193.99 -211.94,-1113.64 97.21,-1245.44 278.47,-118.72 668.57,162.42 832.3,363.54 187.6,-84.04 410.97,-143.12 641.33,-147.34 230.37,4.21 453.73,63.29 641.33,147.34 163.73,-201.12 553.83,-482.26 832.3,-363.54 309.15,131.8 157.33,1051.45 97.21,1245.44 269.41,355 409.59,788.63 254.34,1147.54 -337.27,779.75 -1089.75,905.95 -1825.19,905.95z"/>
  <path class="fil1" d="M1889.78 3262.58c260.22,-2.08 533.23,-32.23 838.5,-97.98 475.59,-102.42 992.77,-568.94 985.14,-1078.32 -4.3,-287.17 -155.28,-564.95 -318.35,-798.67 14.7,-258.47 234.05,-916.66 -24.51,-1155.73 -258.56,-239.06 -726.99,203.19 -832.3,363.54 -213.3,-126.4 -430.88,-188.76 -648.47,-190.92 -217.59,2.16 -435.16,64.52 -648.47,190.92 -105.31,-160.35 -573.74,-602.6 -832.3,-363.54 -258.56,239.07 -39.21,897.26 -24.51,1155.73 -163.07,233.72 -314.05,511.5 -318.35,798.67 -7.63,509.38 509.55,975.9 985.14,1078.32 305.28,65.75 578.27,95.9 838.5,97.98z"/>
  <path class="fil2" d="M784.96 111.17c-621.2,-211.06 -411.67,836.6 -300.73,1169.42 -110.96,258.91 -197.26,456.17 -197.26,727.41l-220.44 62.99c9.3,-281.73 157.79,-553.8 317.97,-783.37 -14.7,-258.47 -234.05,-916.66 24.51,-1155.73 103.84,-96.01 241.53,-82.08 375.95,-20.71z"/>
  <path class="fil3" d="M2994.81 111.07c620.82,-210.61 411.35,836.74 300.43,1169.52 110.96,258.91 197.26,456.17 197.26,727.41 0,1072.62 -1146.59,1356.19 -2586.64,1091.94l5.75 24.62c46.6,16.59 93.33,30.07 139.67,40.05 305.28,65.75 578.27,95.9 838.5,97.98 260.22,-2.08 533.23,-32.23 838.5,-97.98 475.59,-102.42 992.77,-568.94 985.14,-1078.32 -4.3,-287.17 -155.28,-564.95 -318.35,-798.67 14.7,-258.47 234.05,-916.66 -24.51,-1155.73 -103.78,-95.96 -241.38,-82.1 -375.74,-20.81z"/>
  <path class="fil4" d="M1889.78 3262.58c-260.22,-2.08 -533.22,-32.23 -838.5,-97.98 -475.58,-102.42 -992.77,-568.94 -985.14,-1078.32 0.51,-34.06 3.1,-67.99 7.52,-101.74 231.41,-61.53 551.94,79.43 755.84,221.7 87.63,61.14 174.1,53.35 252.41,-19.35 509.15,-472.64 1106.6,-472.64 1615.75,0 78.31,72.69 164.78,80.49 252.41,19.35 203.9,-142.27 524.42,-283.22 755.84,-221.7 4.42,33.75 7.01,67.68 7.52,101.74 7.63,509.38 -509.55,975.9 -985.14,1078.32 -305.28,65.75 -578.27,95.9 -838.5,97.98z"/>
  <path class="fil5" d="M1889.78 3262.58c-260.22,-2.08 -533.22,-32.23 -838.5,-97.98 -46.34,-9.98 -93.07,-23.46 -139.67,-40.05l-5.75 -24.62c1440.04,264.25 2586.64,-19.32 2586.64,-1091.94 0,-10.62 -0.13,-21.11 -0.4,-31.51 75.3,-10.55 148.14,-9.41 213.79,8.05 4.42,33.75 7.01,67.68 7.52,101.74 7.63,509.38 -509.55,975.9 -985.14,1078.32 -305.28,65.75 -578.27,95.9 -838.5,97.98z"/>
  <path class="fil0" d="M997.73 564.37c-209.33,107.91 -305.92,259.28 -413.81,406.29 -160.56,-487.62 -105.77,-891.39 413.81,-406.29z"/>
  <path class="fil0" d="M2781.83 564.37c209.33,107.91 305.92,259.28 413.8,406.29 160.56,-487.62 105.77,-891.39 -413.8,-406.29z"/>
  <path class="fil6" d="M3318.68 2147.8c-162.29,-28.89 -317.28,79.25 -346.17,241.54 -28.89,162.29 79.25,317.28 241.54,346.17 162.29,28.89 317.28,-79.25 346.17,-241.54 28.89,-162.29 -79.25,-317.28 -241.54,-346.17z"/>
  <path class="fil6" d="M460.88 2147.8c162.29,-28.89 317.28,79.25 346.17,241.54 28.89,162.29 -79.25,317.28 -241.54,346.17 -162.29,28.89 -317.28,-79.25 -346.17,-241.54 -28.89,-162.29 79.25,-317.28 241.54,-346.17z"/>
  <path class="fil0" d="M2533.24 1619.42c-74.69,27.05 -131.53,194.03 -197,151.12 -65.47,-42.9 26.27,-224.93 145.29,-268.03 119.03,-43.1 341.72,43.72 311.79,107.63 -29.93,63.91 -185.39,-17.77 -260.08,9.28z"/>
  <path class="fil4" d="M2305.92 1318.12c-10.44,128.07 491.13,101.78 502.51,-14.58 11.38,-116.36 -492.07,-113.49 -502.51,14.58z"/>
  <path class="fil0" d="M1246.24 1619.42c74.69,27.05 131.53,194.03 197,151.12 65.47,-42.9 -26.27,-224.93 -145.29,-268.03 -119.03,-43.1 -341.72,43.72 -311.79,107.63 29.93,63.91 185.39,-17.77 260.08,9.28z"/>
  <path class="fil4" d="M1473.56 1318.12c10.44,128.07 -491.13,101.78 -502.51,-14.58 -11.38,-116.36 492.07,-113.49 502.51,14.58z"/>
  <polygon class="fil2" points="1842.62,1436.96 1786.7,1816.22 2136.34,1194.01 1922.7,1223.86 1976.04,775.1 1628.98,1466.8 "/>
  <path class="fil0" d="M1889.78 3168.34c358.25,0 454.82,-494.34 448.38,-783.64 30.04,-20.32 58.44,-43.02 84.79,-68.18l-74.94 -52.1c-114.53,94.64 -264.84,143.09 -412.94,155.77l-2.66 -191.24c109.73,-17.1 212.56,-109.19 208.2,-184.33 -3.75,-64.5 -124.61,-92.6 -250.82,-91.08 -126.21,-1.52 -247.07,26.58 -250.82,91.08 -4.36,75.14 98.47,167.23 208.2,184.33l-2.66 191.24c-148.1,-12.68 -298.41,-61.13 -412.94,-155.77l-74.94 52.1c26.35,25.16 54.75,47.86 84.79,68.18 -6.44,289.28 90.13,783.64 448.37,783.64z"/>
  <path class="fil6" d="M1889.79 2827.62c-81.23,-18.05 -166.13,-3.13 -243.36,65.63 53.96,261.04 432.75,261.04 486.71,0 -77.23,-68.76 -162.13,-83.68 -243.35,-65.63z"/>
  <path class="fil7" d="M1889.78 2076.62c-54.02,-0.99 -108.05,-14.91 -107.05,-37.79 0.91,-20.88 54.01,-30.27 107.05,-30.37 53.04,0.1 106.14,9.49 107.05,30.37 1,22.89 -53.03,36.81 -107.05,37.79z"/>
 </g>
</svg>
