<?xml version="1.0" encoding="UTF-8"?>
<!DOCTYPE svg PUBLIC "-//W3C//DTD SVG 1.1//EN" "http://www.w3.org/Graphics/SVG/1.1/DTD/svg11.dtd">
<!-- Creator: CorelDRAW 2020 (64-Bit) -->
<svg xmlns="http://www.w3.org/2000/svg" xml:space="preserve" width="129.777mm" height="114.244mm" version="1.1" style="shape-rendering:geometricPrecision; text-rendering:geometricPrecision; image-rendering:optimizeQuality; fill-rule:evenodd; clip-rule:evenodd"
viewBox="0 0 2088.83 1838.82"
 xmlns:xlink="http://www.w3.org/1999/xlink"
 xmlns:xodm="http://www.corel.com/coreldraw/odm/2003">
 <defs>
  <style type="text/css">
   <![CDATA[
    .fil5 {fill:#E6E7E8}
    .fil0 {fill:black}
    .fil7 {fill:black}
    .fil3 {fill:#F7BA12}
    .fil8 {fill:#FDFDFC}
    .fil1 {fill:#FED325}
    .fil4 {fill:#FEFFFD}
    .fil6 {fill:red}
    .fil9 {fill:red}
    .fil2 {fill:#FFFF99}
    .fil10 {fill:white}
   ]]>
  </style>
 </defs>
 <g id="Capa_x0020_1">
  <metadata id="CorelCorpID_0Corel-Layer"/>
  <path class="fil0" d="M1044.41 1838.82c-406.45,0 -822.31,-69.74 -1008.71,-500.69 -85.8,-198.36 -8.33,-438.01 140.57,-634.2 -33.22,-107.21 -117.13,-615.47 53.73,-688.31 153.9,-65.61 369.49,89.76 459.98,200.91 103.68,-46.45 227.13,-79.1 354.44,-81.43 127.32,2.33 250.76,34.98 354.44,81.43 90.49,-111.15 306.08,-266.53 459.98,-200.91 170.86,72.84 86.95,581.1 53.73,688.31 148.89,196.19 226.36,435.85 140.57,634.2 -186.4,430.94 -602.26,500.69 -1008.72,500.69z"/>
  <path class="fil1" d="M1044.41 1803.11c143.82,-1.15 294.69,-17.81 463.41,-54.15 262.84,-56.6 548.67,-314.43 544.45,-595.95 -2.38,-158.71 -85.82,-312.23 -175.94,-441.4 8.12,-142.85 129.35,-506.61 -13.55,-638.73 -142.9,-132.12 -401.78,112.3 -459.98,200.92 -117.88,-69.86 -238.13,-104.32 -358.39,-105.51 -120.25,1.19 -240.5,35.66 -358.38,105.51 -58.2,-88.62 -317.09,-333.04 -459.98,-200.92 -142.9,132.13 -21.67,495.88 -13.55,638.73 -90.13,129.17 -173.57,282.69 -175.94,441.4 -4.22,281.51 281.61,539.34 544.45,595.95 168.72,36.34 319.59,53 463.41,54.15z"/>
  <path class="fil2" d="M433.82 61.44c-343.31,-116.64 -227.51,462.36 -166.2,646.3 -61.32,143.09 -109.02,252.11 -109.02,402.01l-121.83 34.81c5.14,-155.7 87.21,-306.06 175.73,-432.94 -8.12,-142.85 -129.35,-506.61 13.55,-638.73 57.39,-53.06 133.48,-45.37 207.77,-11.45z"/>
  <path class="fil3" d="M1655.12 61.39c343.11,-116.4 227.34,462.44 166.04,646.35 61.32,143.09 109.02,252.11 109.02,402.01 0,592.8 -633.68,749.52 -1429.54,603.47l3.18 13.6c25.76,9.17 51.58,16.62 77.19,22.14 168.72,36.34 319.59,53 463.41,54.15 143.82,-1.15 294.69,-17.81 463.41,-54.15 262.84,-56.6 548.67,-314.43 544.45,-595.95 -2.38,-158.71 -85.82,-312.23 -175.94,-441.4 8.12,-142.85 129.35,-506.61 -13.55,-638.73 -57.36,-53.03 -133.4,-45.37 -207.66,-11.5z"/>
  <path class="fil4" d="M1044.41 1803.11c-143.82,-1.15 -294.69,-17.81 -463.41,-54.15 -262.84,-56.6 -548.67,-314.43 -544.45,-595.95 0.28,-18.83 1.71,-37.58 4.15,-56.23 127.89,-34 305.04,43.9 417.72,122.52 48.43,33.79 96.22,29.48 139.5,-10.69 281.39,-261.21 611.58,-261.21 892.97,0 43.28,40.17 91.07,44.48 139.5,10.69 112.69,-78.63 289.83,-156.53 417.72,-122.52 2.44,18.65 3.87,37.4 4.15,56.23 4.22,281.51 -281.61,539.34 -544.45,595.95 -168.72,36.34 -319.59,53 -463.41,54.15z"/>
  <path class="fil5" d="M1044.41 1803.11c-143.82,-1.15 -294.69,-17.81 -463.41,-54.15 -25.61,-5.52 -51.43,-12.96 -77.19,-22.14l-3.18 -13.6c795.86,146.04 1429.54,-10.68 1429.54,-603.47 0,-5.87 -0.07,-11.67 -0.22,-17.41 41.62,-5.83 81.87,-5.2 118.16,4.45 2.44,18.65 3.87,37.4 4.15,56.23 4.22,281.51 -281.61,539.34 -544.45,595.95 -168.72,36.34 -319.59,53 -463.41,54.15z"/>
  <path class="fil0" d="M551.41 311.91c-115.69,59.64 -169.07,143.29 -228.7,224.54 -88.73,-269.49 -58.45,-492.64 228.7,-224.54z"/>
  <path class="fil0" d="M1537.42 311.91c115.69,59.64 169.07,143.29 228.69,224.54 88.73,-269.49 58.45,-492.64 -228.69,-224.54z"/>
  <path class="fil6" d="M1834.11 1187.01c-89.69,-15.97 -175.35,43.8 -191.31,133.49 -15.97,89.69 43.8,175.35 133.49,191.32 89.69,15.97 175.35,-43.8 191.32,-133.49 15.97,-89.69 -43.8,-175.35 -133.49,-191.32z"/>
  <path class="fil6" d="M254.71 1187.01c89.69,-15.97 175.35,43.8 191.32,133.49 15.97,89.69 -43.8,175.35 -133.49,191.32 -89.69,15.97 -175.35,-43.8 -191.32,-133.49 -15.97,-89.69 43.8,-175.35 133.49,-191.32z"/>
  <polygon class="fil2" points="1018.35,794.15 987.45,1003.76 1180.68,659.89 1062.61,676.38 1092.09,428.37 900.28,810.65 "/>
  <path class="fil7" d="M1460.05 971.93c-82.79,0 -149.9,-67.11 -149.9,-149.9 0,-82.79 67.11,-149.9 149.9,-149.9 82.79,0 149.9,67.11 149.9,149.9 0,82.79 -67.11,149.9 -149.9,149.9z"/>
  <path class="fil8" d="M1442.42 680.94c-48.7,0 -88.18,39.48 -88.18,88.18 0,48.7 39.48,88.18 88.18,88.18 48.7,0 88.18,-39.48 88.18,-88.18 0,-48.7 -39.48,-88.18 -88.18,-88.18z"/>
  <path class="fil4" d="M1277.46 571.95c-5.77,70.78 271.43,56.25 277.72,-8.06 6.29,-64.31 -271.95,-62.72 -277.72,8.06z"/>
  <path class="fil7" d="M628.77 971.93c82.79,0 149.9,-67.11 149.9,-149.9 0,-82.79 -67.11,-149.9 -149.9,-149.9 -82.79,0 -149.9,67.11 -149.9,149.9 0,82.79 67.11,149.9 149.9,149.9z"/>
  <path class="fil8" d="M646.4 680.94c48.7,0 88.18,39.48 88.18,88.18 0,48.7 -39.48,88.18 -88.18,88.18 -48.7,0 -88.18,-39.48 -88.18,-88.18 0,-48.7 39.48,-88.18 88.18,-88.18z"/>
  <path class="fil4" d="M811.36 571.95c5.77,70.78 -271.43,56.25 -277.72,-8.06 -6.29,-64.31 271.95,-62.72 277.72,8.06z"/>
  <path class="fil7" d="M1044.41 1389.11l177.16 68.14c0,156.72 -112.88,272.55 -177.16,272.55 -64.28,0 -177.16,-115.83 -177.16,-272.55l177.16 -68.14z"/>
  <path class="fil9" d="M1044.41 1695.73c36.11,0 136.28,-109.02 143.09,-245.3l-143.09 -61.32 -143.09 61.32c6.81,136.28 106.98,245.3 143.09,245.3z"/>
  <path class="fil7" d="M1023.97 1511.76c0,11.29 9.15,20.44 20.44,20.44 11.29,0 20.44,-9.15 20.44,-20.44l0 -136.28 -40.88 0 0 136.28z"/>
  <path class="fil7" d="M1044.41 1436.81c-34.07,54.51 -238.48,136.27 -286.18,-61.32 -11.64,-48.21 39.62,-49.61 47.63,-19.19 40.95,155.46 212.42,60.26 213.52,-19.01l1.47 -105.69c-60.64,-9.45 -117.47,-60.35 -115.06,-101.87 2.07,-35.65 68.86,-51.18 138.62,-50.34 69.75,-0.84 136.55,14.69 138.62,50.34 2.41,41.52 -54.42,92.42 -115.06,101.87l1.47 105.69c1.1,79.26 172.58,174.47 213.52,19.01 8.01,-30.43 59.27,-29.03 47.63,19.19 -47.7,197.6 -252.11,115.83 -286.18,61.32z"/>
  <path class="fil10" d="M1044.41 1147.42c-29.86,-0.55 -59.71,-8.24 -59.16,-20.89 0.5,-11.54 29.85,-16.73 59.16,-16.78 29.31,0.05 58.66,5.24 59.16,16.78 0.55,12.65 -29.31,20.34 -59.16,20.89z"/>
 </g>
</svg>
