<?xml version="1.0" encoding="UTF-8"?>
<!DOCTYPE svg PUBLIC "-//W3C//DTD SVG 1.1//EN" "http://www.w3.org/Graphics/SVG/1.1/DTD/svg11.dtd">
<!-- Creator: CorelDRAW 2020 (64-Bit) -->
<svg xmlns="http://www.w3.org/2000/svg" xml:space="preserve" width="129.777mm" height="114.244mm" version="1.1" style="shape-rendering:geometricPrecision; text-rendering:geometricPrecision; image-rendering:optimizeQuality; fill-rule:evenodd; clip-rule:evenodd"
viewBox="0 0 1053.99 927.84"
 xmlns:xlink="http://www.w3.org/1999/xlink"
 xmlns:xodm="http://www.corel.com/coreldraw/odm/2003">
 <defs>
  <style type="text/css">
   <![CDATA[
    .fil5 {fill:#E6E7E8}
    .fil0 {fill:black}
    .fil7 {fill:black}
    .fil3 {fill:#F7BA12}
    .fil8 {fill:#FDFDFC}
    .fil1 {fill:#FED325}
    .fil4 {fill:#FEFFFD}
    .fil6 {fill:red}
    .fil2 {fill:#FFFF99}
    .fil9 {fill:white}
   ]]>
  </style>
 </defs>
 <g id="Capa_x0020_1">
  <metadata id="CorelCorpID_0Corel-Layer"/>
  <path class="fil0" d="M527 927.84c-205.09,0 -414.93,-35.19 -508.98,-252.64 -43.29,-100.09 -4.2,-221.01 70.93,-320.01 -16.76,-54.1 -59.1,-310.56 27.11,-347.31 77.66,-33.11 186.44,45.29 232.1,101.38 52.32,-23.44 114.61,-39.91 178.85,-41.09 64.24,1.17 126.53,17.65 178.85,41.09 45.66,-56.08 154.44,-134.49 232.1,-101.38 86.21,36.75 43.87,293.21 27.11,347.31 75.13,99 114.22,219.92 70.93,320.01 -94.05,217.45 -303.89,252.64 -508.98,252.64z"/>
  <path class="fil1" d="M527 909.82c72.57,-0.58 148.7,-8.99 233.83,-27.32 132.62,-28.56 276.85,-158.66 274.72,-300.71 -1.2,-80.08 -43.3,-157.54 -88.78,-222.72 4.1,-72.08 65.27,-255.63 -6.84,-322.3 -72.1,-66.67 -202.73,56.66 -232.1,101.38 -59.48,-35.25 -120.16,-52.64 -180.84,-53.24 -60.68,0.6 -121.35,17.99 -180.84,53.24 -29.37,-44.72 -160,-168.05 -232.1,-101.38 -72.11,66.67 -10.93,250.22 -6.84,322.3 -45.48,65.18 -87.58,142.64 -88.78,222.72 -2.13,142.05 142.1,272.14 274.72,300.71 85.13,18.33 161.26,26.74 233.83,27.32z"/>
  <path class="fil2" d="M218.9 31c-173.23,-58.86 -114.8,233.3 -83.86,326.11 -30.94,72.2 -55.01,127.21 -55.01,202.85l-61.47 17.56c2.59,-78.56 44,-154.44 88.67,-218.46 -4.1,-72.08 -65.27,-255.63 6.84,-322.3 28.96,-26.77 67.35,-22.89 104.84,-5.78z"/>
  <path class="fil3" d="M835.15 30.97c173.13,-58.73 114.71,233.34 83.78,326.14 30.94,72.2 55.01,127.21 55.01,202.85 0,299.12 -319.75,378.2 -721.33,304.51l1.6 6.86c13,4.63 26.03,8.39 38.95,11.17 85.13,18.33 161.26,26.74 233.83,27.32 72.57,-0.58 148.7,-8.99 233.83,-27.32 132.62,-28.56 276.85,-158.66 274.72,-300.71 -1.2,-80.08 -43.3,-157.54 -88.78,-222.72 4.1,-72.08 65.27,-255.63 -6.84,-322.3 -28.94,-26.76 -67.31,-22.89 -104.78,-5.8z"/>
  <path class="fil4" d="M527 909.82c-72.57,-0.58 -148.7,-8.99 -233.83,-27.32 -132.62,-28.56 -276.85,-158.66 -274.72,-300.71 0.14,-9.5 0.86,-18.96 2.1,-28.37 64.53,-17.16 153.92,22.15 210.78,61.82 24.44,17.05 48.55,14.88 70.39,-5.4 141.99,-131.8 308.59,-131.8 450.58,0 21.84,20.27 45.95,22.44 70.39,5.4 56.86,-39.67 146.24,-78.98 210.78,-61.82 1.23,9.41 1.95,18.87 2.1,28.37 2.13,142.05 -142.1,272.14 -274.72,300.71 -85.13,18.33 -161.26,26.74 -233.83,27.32z"/>
  <path class="fil5" d="M527 909.82c-72.57,-0.58 -148.7,-8.99 -233.83,-27.32 -12.92,-2.78 -25.95,-6.54 -38.95,-11.17l-1.6 -6.86c401.58,73.69 721.33,-5.39 721.33,-304.51 0,-2.96 -0.04,-5.89 -0.11,-8.79 21,-2.94 41.31,-2.62 59.62,2.24 1.23,9.41 1.95,18.87 2.1,28.37 2.13,142.05 -142.1,272.14 -274.72,300.71 -85.13,18.33 -161.26,26.74 -233.83,27.32z"/>
  <path class="fil0" d="M278.23 157.38c-58.38,30.09 -85.31,72.3 -115.4,113.3 -44.77,-135.98 -29.49,-248.58 115.4,-113.3z"/>
  <path class="fil0" d="M775.76 157.38c58.38,30.09 85.31,72.3 115.4,113.3 44.77,-135.98 29.5,-248.58 -115.4,-113.3z"/>
  <path class="fil6" d="M925.47 598.95c-45.26,-8.06 -88.48,22.1 -96.53,67.36 -8.06,45.26 22.1,88.48 67.36,96.54 45.26,8.06 88.48,-22.1 96.54,-67.36 8.06,-45.26 -22.1,-88.48 -67.36,-96.54z"/>
  <path class="fil6" d="M128.52 598.95c45.26,-8.06 88.48,22.1 96.54,67.36 8.06,45.26 -22.1,88.48 -67.36,96.54 -45.26,8.06 -88.48,-22.1 -96.54,-67.36 -8.06,-45.26 22.1,-88.48 67.36,-96.54z"/>
  <polygon class="fil2" points="513.85,400.72 498.25,506.48 595.75,332.97 536.18,341.29 551.05,216.15 454.27,409.04 "/>
  <path class="fil7" d="M736.72 490.42c-41.77,0 -75.64,-33.86 -75.64,-75.64 0,-41.77 33.86,-75.64 75.64,-75.64 41.77,0 75.64,33.86 75.64,75.64 0,41.77 -33.86,75.64 -75.64,75.64z"/>
  <path class="fil8" d="M727.82 343.59c-24.57,0 -44.49,19.92 -44.49,44.49 0,24.57 19.92,44.49 44.49,44.49 24.57,0 44.49,-19.92 44.49,-44.49 0,-24.57 -19.92,-44.49 -44.49,-44.49z"/>
  <path class="fil4" d="M644.59 288.6c-2.91,35.71 136.96,28.38 140.13,-4.06 3.17,-32.45 -137.22,-31.65 -140.13,4.06z"/>
  <path class="fil7" d="M317.27 490.42c41.77,0 75.64,-33.86 75.64,-75.64 0,-41.77 -33.86,-75.64 -75.64,-75.64 -41.77,0 -75.64,33.86 -75.64,75.64 0,41.77 33.86,75.64 75.64,75.64z"/>
  <path class="fil8" d="M326.17 343.59c24.57,0 44.49,19.92 44.49,44.49 0,24.57 -19.92,44.49 -44.49,44.49 -24.57,0 -44.49,-19.92 -44.49,-44.49 0,-24.57 19.92,-44.49 44.49,-44.49z"/>
  <path class="fil4" d="M409.4 288.6c2.91,35.71 -136.96,28.38 -140.13,-4.06 -3.17,-32.45 137.22,-31.65 140.13,4.06z"/>
  <path class="fil9" d="M527 578.97c-15.07,-0.28 -30.13,-4.16 -29.85,-10.54 0.25,-5.82 15.06,-8.44 29.85,-8.47 14.79,0.03 29.6,2.65 29.85,8.47 0.28,6.38 -14.79,10.26 -29.85,10.54z"/>
  <path class="fil7" d="M527 714.68c17.19,27.51 178.89,65.35 202.85,-24.07 6.48,-24.17 -19.99,-25.03 -24.03,-9.68 -17.9,67.95 -165.59,37.19 -166.19,-6.15l-0.74 -53.33c30.6,-4.77 59.27,-30.45 58.06,-51.4 -1.04,-17.99 -34.75,-25.82 -69.94,-25.4 -35.2,-0.42 -68.9,7.41 -69.94,25.4 -1.21,20.95 27.46,46.63 58.06,51.4l-0.74 53.33c-0.6,43.35 -148.29,74.1 -166.19,6.15 -4.04,-15.35 -30.51,-14.49 -24.03,9.68 23.96,89.42 185.66,51.57 202.85,24.07z"/>
 </g>
</svg>
