<?xml version="1.0" encoding="UTF-8"?>
<!DOCTYPE svg PUBLIC "-//W3C//DTD SVG 1.1//EN" "http://www.w3.org/Graphics/SVG/1.1/DTD/svg11.dtd">
<!-- Creator: CorelDRAW 2020 (64-Bit) -->
<svg xmlns="http://www.w3.org/2000/svg" xml:space="preserve" width="129.777mm" height="114.244mm" version="1.1" style="shape-rendering:geometricPrecision; text-rendering:geometricPrecision; image-rendering:optimizeQuality; fill-rule:evenodd; clip-rule:evenodd"
viewBox="0 0 807.86 711.17"
 xmlns:xlink="http://www.w3.org/1999/xlink"
 xmlns:xodm="http://www.corel.com/coreldraw/odm/2003">
 <defs>
  <style type="text/css">
   <![CDATA[
    .fil8 {fill:none}
    .fil5 {fill:#E6E7E8}
    .fil0 {fill:black}
    .fil7 {fill:black}
    .fil3 {fill:#F7BA12}
    .fil1 {fill:#FED325}
    .fil4 {fill:#FEFFFD}
    .fil6 {fill:red}
    .fil2 {fill:#FFFF99}
    .fil9 {fill:white}
   ]]>
  </style>
 </defs>
 <g id="Capa_x0020_1">
  <metadata id="CorelCorpID_0Corel-Layer"/>
  <path class="fil0" d="M403.93 711.17c-157.2,0 -318.03,-26.97 -390.12,-193.64 -33.18,-76.72 -3.22,-169.4 54.37,-245.28 -12.85,-41.46 -45.3,-238.04 20.78,-266.21 59.52,-25.38 142.9,34.72 177.9,77.7 40.1,-17.96 87.84,-30.59 137.08,-31.49 49.24,0.9 96.98,13.53 137.08,31.49 35,-42.99 118.38,-103.08 177.9,-77.7 66.08,28.17 33.63,224.74 20.78,266.21 57.59,75.88 87.55,168.57 54.37,245.28 -72.09,166.67 -232.93,193.64 -390.13,193.64z"/>
  <path class="fil1" d="M403.93 697.36c55.62,-0.44 113.97,-6.89 179.22,-20.94 101.65,-21.89 212.2,-121.61 210.57,-230.49 -0.92,-61.38 -33.19,-120.75 -68.05,-170.71 3.14,-55.25 50.03,-195.93 -5.24,-247.03 -55.27,-51.1 -155.39,43.43 -177.9,77.71 -45.59,-27.02 -92.1,-40.35 -138.61,-40.81 -46.51,0.46 -93.01,13.79 -138.61,40.81 -22.51,-34.27 -122.63,-128.8 -177.9,-77.71 -55.27,51.1 -8.38,191.79 -5.24,247.03 -34.86,49.96 -67.13,109.33 -68.05,170.71 -1.63,108.88 108.91,208.59 210.57,230.49 65.25,14.05 123.6,20.5 179.22,20.94z"/>
  <path class="fil2" d="M167.78 23.76c-132.78,-45.11 -87.99,178.82 -64.28,249.96 -23.72,55.34 -42.16,97.5 -42.16,155.48l-47.12 13.46c1.99,-60.22 33.73,-118.37 67.96,-167.44 -3.14,-55.25 -50.03,-195.93 5.24,-247.03 22.2,-20.52 51.63,-17.55 80.36,-4.43z"/>
  <path class="fil3" d="M640.13 23.74c132.7,-45.02 87.92,178.85 64.21,249.98 23.72,55.34 42.16,97.5 42.16,155.48 0,229.27 -245.08,289.88 -552.88,233.4l1.23 5.26c9.96,3.55 19.95,6.43 29.85,8.56 65.25,14.05 123.6,20.5 179.22,20.94 55.62,-0.44 113.97,-6.89 179.22,-20.94 101.65,-21.89 212.2,-121.61 210.57,-230.49 -0.92,-61.38 -33.19,-120.75 -68.05,-170.71 3.14,-55.25 50.03,-195.93 -5.24,-247.03 -22.18,-20.51 -51.59,-17.55 -80.31,-4.45z"/>
  <path class="fil4" d="M403.93 697.36c-55.62,-0.44 -113.97,-6.89 -179.22,-20.94 -101.65,-21.89 -212.2,-121.61 -210.57,-230.49 0.11,-7.28 0.66,-14.53 1.61,-21.75 49.46,-13.15 117.97,16.98 161.56,47.39 18.73,13.07 37.21,11.4 53.95,-4.14 108.83,-101.02 236.53,-101.02 345.36,0 16.74,15.54 35.22,17.2 53.95,4.14 43.58,-30.41 112.09,-60.54 161.56,-47.39 0.94,7.21 1.5,14.47 1.61,21.75 1.63,108.88 -108.91,208.59 -210.57,230.49 -65.25,14.05 -123.6,20.5 -179.22,20.94z"/>
  <path class="fil5" d="M403.93 697.36c-55.62,-0.44 -113.97,-6.89 -179.22,-20.94 -9.9,-2.13 -19.89,-5.01 -29.85,-8.56l-1.23 -5.26c307.8,56.48 552.88,-4.13 552.88,-233.4 0,-2.27 -0.03,-4.51 -0.08,-6.73 16.1,-2.25 31.66,-2.01 45.7,1.72 0.94,7.21 1.5,14.47 1.61,21.75 1.63,108.88 -108.91,208.59 -210.57,230.49 -65.25,14.05 -123.6,20.5 -179.22,20.94z"/>
  <path class="fil0" d="M213.26 120.63c-44.74,23.06 -65.39,55.42 -88.45,86.84 -34.32,-104.23 -22.61,-190.53 88.45,-86.84z"/>
  <path class="fil0" d="M594.6 120.63c44.74,23.06 65.39,55.42 88.45,86.84 34.32,-104.23 22.61,-190.53 -88.45,-86.84z"/>
  <path class="fil6" d="M709.35 459.08c-34.69,-6.18 -67.82,16.94 -73.99,51.63 -6.18,34.69 16.94,67.82 51.63,73.99 34.69,6.18 67.82,-16.94 73.99,-51.63 6.18,-34.69 -16.94,-67.82 -51.63,-73.99z"/>
  <path class="fil6" d="M98.51 459.08c34.69,-6.18 67.82,16.94 73.99,51.63 6.18,34.69 -16.94,67.82 -51.63,73.99 -34.69,6.18 -67.82,-16.94 -73.99,-51.63 -6.18,-34.69 16.94,-67.82 51.63,-73.99z"/>
  <path class="fil0" d="M541.47 346.14c-15.97,5.78 -28.11,41.47 -42.11,32.3 -13.99,-9.17 5.61,-48.08 31.06,-57.29 25.44,-9.21 73.04,9.35 66.64,23.01 -6.4,13.66 -39.63,-3.8 -55.59,1.98z"/>
  <path class="fil4" d="M492.88 281.74c-2.23,27.37 104.98,21.76 107.41,-3.12 2.43,-24.87 -105.18,-24.26 -107.41,3.12z"/>
  <path class="fil0" d="M266.38 346.14c15.97,5.78 28.11,41.47 42.11,32.3 13.99,-9.17 -5.61,-48.08 -31.06,-57.29 -25.44,-9.21 -73.04,9.35 -66.64,23.01 6.4,13.66 39.63,-3.8 55.59,1.98z"/>
  <path class="fil4" d="M314.97 281.74c2.23,27.37 -104.98,21.76 -107.41,-3.12 -2.43,-24.87 105.18,-24.26 107.41,3.12z"/>
  <polygon class="fil2" points="393.85,307.14 381.9,388.21 456.63,255.22 410.97,261.59 422.37,165.67 348.19,313.52 "/>
  <path class="fil7" d="M403.93 547.79c13.18,21.08 137.12,50.09 155.48,-18.45 4.96,-18.53 -15.32,-19.19 -18.42,-7.42 -13.72,52.08 -126.92,28.51 -127.38,-4.72l-0.57 -40.88c23.45,-3.66 45.43,-23.34 44.5,-39.4 -0.8,-13.79 -26.63,-19.79 -53.61,-19.47 -26.98,-0.32 -52.81,5.68 -53.61,19.47 -0.93,16.06 21.05,35.74 44.5,39.4l-0.57 40.88c-0.46,33.22 -113.66,56.8 -127.38,4.72 -3.1,-11.77 -23.39,-11.11 -18.42,7.42 18.36,68.54 142.3,39.53 155.48,18.45z"/>
  <path class="fil8" d="M403.93 547.79c13.18,21.08 137.12,50.09 155.48,-18.45 4.96,-18.53 -15.32,-19.19 -18.42,-7.42 -13.72,52.08 -126.92,28.51 -127.38,-4.72l-0.57 -40.88c23.45,-3.66 45.43,-23.34 44.5,-39.4 -0.8,-13.79 -26.63,-19.79 -53.61,-19.47"/>
  <path class="fil9" d="M403.93 443.77c-11.55,-0.21 -23.09,-3.19 -22.88,-8.08 0.19,-4.46 11.54,-6.47 22.88,-6.49 11.34,0.02 22.69,2.03 22.88,6.49 0.21,4.89 -11.33,7.87 -22.88,8.08z"/>
 </g>
</svg>
