<?xml version="1.0" encoding="UTF-8"?>
<!DOCTYPE svg PUBLIC "-//W3C//DTD SVG 1.1//EN" "http://www.w3.org/Graphics/SVG/1.1/DTD/svg11.dtd">
<!-- Creator: CorelDRAW 2020 (64-Bit) -->
<svg xmlns="http://www.w3.org/2000/svg" xml:space="preserve" width="102.61mm" height="138.939mm" version="1.1" style="shape-rendering:geometricPrecision; text-rendering:geometricPrecision; image-rendering:optimizeQuality; fill-rule:evenodd; clip-rule:evenodd"
viewBox="0 0 2152.45 2914.51"
 xmlns:xlink="http://www.w3.org/1999/xlink"
 xmlns:xodm="http://www.corel.com/coreldraw/odm/2003">
 <defs>
  <style type="text/css">
   <![CDATA[
    .str0 {stroke:black;stroke-width:7.4;stroke-miterlimit:22.9256}
    .fil4 {fill:none}
    .fil6 {fill:#E6E7E8}
    .fil8 {fill:#FCF182}
    .fil0 {fill:black}
    .fil5 {fill:#F7BA12}
    .fil1 {fill:#FED325}
    .fil9 {fill:#FEFFFD}
    .fil3 {fill:red}
    .fil7 {fill:#FFFFFB}
    .fil2 {fill:white}
   ]]>
  </style>
 </defs>
 <g id="Capa_x0020_1">
  <metadata id="CorelCorpID_0Corel-Layer"/>
  <path class="fil0 str0" d="M244.91 797.11l71.04 17.76c-35.52,-133.2 40.27,-275.29 155.71,-381.85 -8.88,-71.04 -4.75,-399.61 110.7,-426.25 103.99,-24 222.01,97.68 266.41,177.61 142.09,-35.52 328.57,-26.64 461.77,97.68 106.56,-79.92 275.29,-115.44 337.45,-53.28 75.48,75.48 -22.51,319.69 -84.67,417.37 44.4,106.56 49.15,195.36 31.39,301.93 8.88,-4.27 19.34,-23.05 27.88,-16.65 12.07,9.05 -4.9,37.19 7.65,43.29 12.54,6.1 36.22,-18.63 53.28,-8.88 17.06,9.75 4.18,38.19 8.88,44.4 4.7,6.21 35.52,-8.88 44.4,0 8.88,8.88 -7.28,37.62 0,44.4 7.81,7.27 22.44,-0.93 26.64,8.88 5.83,13.6 -4.84,39.6 0,44.4 4.84,4.8 28.64,-3.15 26.64,8.88 -3.44,20.64 -26.3,28.08 -31.59,48.33 -45.82,175.23 -128.25,333.52 -270.34,448.96 20.83,29.16 43.21,83.3 54.63,145.84 12.93,70.8 12.8,152.24 -1.35,218.25 30.2,0 32.78,-116.72 35.77,-137.48 22.19,-153.91 79.44,-313.07 160.14,-373.6 112.32,-84.24 306.53,-149.79 407.95,-48.37 18.75,18.75 -42.61,34.09 -88.8,71.04 -44.4,35.52 -67.8,79.93 -77.46,150.86 -9.91,72.73 -15.55,144.19 -33.28,213.23 -12.6,49.07 -33.6,100.97 -55.16,145.53 -81.31,168.05 -295.87,271.84 -420.19,280.72 -44.4,62.16 -87.92,114.32 -156.52,154.33 -106.56,62.16 -217.19,78.2 -340.78,94.31 -81.18,10.58 -168.72,88.8 -275.29,97.68 0,97.68 -6.91,276.13 -71.04,284.17 -70.49,8.84 -97.68,-195.36 -88.8,-319.69 -168.73,-79.92 -246.14,-282.6 -230.89,-435.13 20.34,-203.42 115.44,-417.37 133.2,-586.1 -105.31,-101.77 -210.55,-209.73 -275.29,-337.45 -44.98,-88.75 -95.62,-233.43 -115.44,-275.29 -19.83,-41.85 -53.28,-53.28 -44.4,-62.16 8.88,-8.88 28.09,4.12 35.52,-8.88 7.43,-13 -8.88,-44.4 0,-53.25 8.88,-8.84 26.64,8.84 30.8,0 4.16,-8.84 -9.4,-35.03 4.72,-44.44 14.12,-9.41 34.52,14.05 44.4,8.88 13.11,-6.86 -3.96,-29.29 8.88,-35.52 12.84,-6.23 26.99,21.24 44.4,17.76 12.97,-2.59 22.68,-20.97 35.52,-17.76 16.24,4.06 21.81,32.1 35.52,35.52z"/>
  <path class="fil1" d="M1541.42 637.26c44.4,-88.8 150.97,-319.69 88.8,-390.73 -62.16,-71.04 -248.65,8.88 -319.69,62.16 -138.41,-118.64 -299.09,-153.14 -470.65,-88.8 -26.64,-62.16 -161.89,-244.6 -266.41,-177.61 -104.51,67 -69.05,308.99 -79.92,399.61 -71.04,71.04 -140.61,158.12 -159.84,257.53 -34.12,176.32 116.55,370.2 275.29,435.13 232.03,94.92 417.37,115.44 630.5,106.56 79.92,-106.56 319.69,-230.88 328.57,-275.29 26.71,-133.57 9,-203.83 -26.64,-328.57z"/>
  <path class="fil2" d="M342.61 664.58c-3.62,11.44 -6.61,23.06 -8.9,34.85 -34.12,176.32 116.55,370.2 275.29,435.13 232.03,94.92 417.37,115.44 630.5,106.56 79.92,-106.56 319.69,-230.88 328.57,-275.29 3.55,-17.75 6.31,-34.38 8.35,-50.18 -166.32,-98.12 -255.17,84 -328.04,5.78 -77.55,-83.25 -140.98,-168.24 -266.41,-195.36 -117.57,-25.43 -213.6,14.18 -301.93,71.04 -31.68,20.39 -62.16,17.75 -88.8,-8.88 -61.98,-61.98 -164.51,-130.71 -248.63,-123.65z"/>
  <path class="fil3" d="M1343.37 1143.57c50.33,-38.85 106.22,-76.24 149.69,-107.68 -11.92,-40.5 -49.36,-70.07 -93.72,-70.07 -53.95,0 -97.68,43.73 -97.68,97.68 0,33.12 16.49,62.4 41.71,80.06z"/>
  <path class="fil1" d="M1379.73 1664.28c176.21,-97.77 304.85,-307.99 355.18,-500.27 8.88,-11.84 26.64,-23.44 26.64,-35.52 0,-12.08 -22.64,1.13 -26.64,-8.88 -4,-10.01 15.33,-23.22 8.88,-35.52 -6.45,-12.31 -22.84,3.42 -31.16,-6.98 -8.32,-10.4 3.13,-26.19 -4.36,-37.42 -7.49,-11.23 -26.89,-0.25 -35.52,-8.88 -8.63,-8.63 3.33,-29.42 -8.88,-35.52 -12.21,-6.1 -29.2,10.09 -42.22,4.52 -13.02,-5.58 -7.37,-31.74 -17.36,-33.74 -9.98,-2 -35.33,43.63 -56.26,59.59 -54.18,41.32 -112.15,76.64 -166.46,117.78 -94.73,71.76 -155.57,129.29 -207.67,230.62 -14.54,28.28 -40.97,35.78 -32.09,9.14 8.88,-26.64 58.5,-96.81 97.68,-142.09 -213.13,8.88 -398.46,-11.64 -630.5,-106.56 11.26,4.56 2.01,33.3 -26.64,17.76 -115.25,-62.51 -225.12,-163.87 -257.53,-301.93 -22.13,-11.58 -60.64,-31.33 -87.39,-23.59 -8.88,-11.84 -14.56,-31.49 -26.64,-35.52 -12.08,-4.03 -14.69,17.76 -26.64,17.76 -11.95,0 -24.52,-16.82 -36.31,-14.86 -11.79,1.96 -4.8,23.55 -15.65,27.17 -10.85,3.62 -28.01,-14.38 -38.66,-5.85 -10.66,8.53 2.54,31.49 -4.94,40.85 -7.49,9.36 -25.05,-9.93 -29.3,2.82 -4.25,12.75 12.06,34.66 6.43,44.36 -5.63,9.7 -22.76,-3.2 -25.99,9.72 -3.23,12.92 13.96,15.54 20.1,29 52.21,114.24 91.91,233.18 159.85,340.64 60.57,95.78 152.62,181.13 220.59,255.27l0 -78.29c0,-26.64 28.13,-27.69 28.13,7.83 0,124.64 -18.04,226.75 -54.77,332.89 -43.17,124.74 -71.04,248.65 -79.92,364.09 -15.9,206.7 131.91,371.63 248.65,417.37 116.73,45.74 180.65,4.36 248.65,-26.64 126.47,-57.66 246.68,-59.25 372.97,-97.68 120.32,-36.62 239.58,-140.76 284.36,-259.7 34.4,-91.39 42.33,-212.29 44.21,-299.75 2.3,-106.73 -17.76,-204.25 -57.5,-272.33 -28.19,19.74 -56.39,39.48 -84.58,59.21 -16.03,11.22 -30.16,-10.06 -10.73,-20.85z"/>
  <path class="fil4" d="M957.52 1230.56c-55.97,-7.55 -112.42,-18.88 -170.91,-34.94l-0.01 1.1c0,49.04 39.76,88.8 88.8,88.8 37.06,0 68.81,-22.7 82.12,-54.96z"/>
  <path class="fil5" d="M1248.38 1791.69c-72.99,0 -104.1,240.27 -114.73,298.48 -18.47,101.13 -27.35,189.94 16.7,203.06 17.74,5.29 33.99,-44.27 53.64,-66.41 19.6,-22.07 27.75,1.11 15.15,13.71 -25.2,25.2 -39.92,85.59 -81.66,70.46 -58.29,-21.14 -41.74,-146.7 -31.18,-190.73 21.24,-88.57 42.25,-199.94 68.8,-286.95 -74.95,22.68 -137.12,79.99 -157.6,153.75 -2.21,7.97 -7,10.94 -11.35,10.34 -2.41,8.37 -4.63,16.76 -6.41,25.18 -42.59,201.33 -442.58,159.52 -661.75,97.97 -1.72,14.83 -3.14,29.54 -4.26,44.11 -15.9,206.7 131.91,371.63 248.65,417.37 116.73,45.74 180.65,4.36 248.65,-26.64 126.47,-57.66 246.68,-59.25 372.97,-97.68 103.59,-31.53 206.39,-113.11 261.55,-211.09 -79.81,-72.61 -131.06,-128.67 -173.72,-245.78 -1.65,2.44 -4.16,3.98 -7.9,3.98 -8.88,0 -8.96,-15.2 -8.96,-27.31 0,-38.33 25.81,-185.82 -26.56,-185.82z"/>
  <path class="fil0" d="M1534.62 1867.97c-0.97,-41.42 -5.4,-81.04 -13.13,-117.63 -119.76,-13.01 -182.56,152.27 13.13,117.63z"/>
  <path class="fil1" d="M1594.71 1880.49c0,20.82 -3.61,49.18 -11.28,70.12 -11.95,32.65 -25.79,56.36 -36.61,56.36 0,106.56 -13.12,180.23 -66.4,251.27 71.04,-8.88 182.12,-60.37 283.02,-137.98 115.44,-88.8 163.52,-252.97 186.49,-408.49 6.02,-40.78 7.61,-83.9 17.19,-120.98 20.22,-78.26 76.07,-133.42 160.42,-163.19 -53.28,-88.8 -390.73,-26.64 -461.77,177.61 -31.3,89.98 -67.39,186.69 -71.04,275.29z"/>
  <path class="fil0" d="M1576.06 1962.62c-10.86,26.23 -22.64,44.16 -32.13,44.16 0,108.54 -13.37,183.57 -67.64,255.93 72.36,-9.05 185.49,-61.49 288.26,-140.54 19.48,-14.99 37.07,-32.09 52.98,-50.91l-107.25 -21.45 -27.13 -90.45 -99.49 36.18 -7.6 -32.92z"/>
  <path class="fil0" d="M1505.9 521.82c-26.64,-62.16 -71.04,-115.44 -115.44,-168.72 142.08,-106.56 230.88,-26.64 115.44,168.72z"/>
  <path class="fil0" d="M751.08 228.77c-79.32,24.52 -122.2,71.08 -168.73,115.44 -25.59,-179.16 18.37,-315.91 168.73,-115.44z"/>
  <path class="fil2" d="M609 1134.55c15.52,36.36 -1.5,266.11 7.3,355.6 4.3,43.78 14.04,238.46 44.51,292.66 101.78,181.01 285.98,-67.46 336.12,-172.72 37.58,-78.9 122.67,-203.28 171.81,-275.37 13.54,-19.87 49.87,-68.39 70.75,-93.61 16.17,-19.53 -222.58,-43.74 -301.29,-43.74 -86.21,0 -246.93,-29.59 -320.96,-74.48 -10.07,-6.11 -10.91,5.42 -8.25,11.66z"/>
  <path class="fil0" d="M1218.64 699.75c27.86,0 66.55,48.28 83.01,26.31 16.47,-21.97 -35.52,-71.04 -79.92,-71.04 -44.4,0 -107.47,55.22 -89.97,72.73 17.5,17.5 59.02,-28 86.88,-28z"/>
  <path class="fil0" d="M778.51 622.8c24.13,13.93 33.49,75.08 58.74,64.3 25.25,-10.79 4.76,-79.29 -33.69,-101.49 -38.45,-22.2 -120.69,-5.91 -114.28,18 6.41,23.91 65.11,5.26 89.24,19.19z"/>
  <path class="fil1" d="M583.67 2836.63c-20.81,-55.82 -36.83,-165.79 -27.95,-236.84 38.26,21.88 81.44,29.9 124.32,26.64 0,50.64 -2.95,176.53 -27.4,236.2 -16.16,39.43 -51.46,20.94 -68.97,-26z"/>
  <path class="fil6" d="M403.13 964.71c69.56,78.87 81.13,112.61 205.87,169.84 254.9,116.95 354.68,114.7 549.11,97.68 9.85,-13.14 22.14,-26.54 36.12,-40.04 -230.66,66.15 -515.31,-32.6 -628.81,-117.49 -113.5,-84.89 -223.48,-251.71 -170.4,-405.89 -25.31,-5.93 -37.97,-4.26 -52.4,-4.25 -30.07,94.7 -9.04,221.27 60.52,300.14z"/>
  <path class="fil3" d="M466.92 752.7c53.95,0 97.68,43.73 97.68,97.68 0,53.95 -43.73,97.68 -97.68,97.68 -53.95,0 -97.68,-43.73 -97.68,-97.68 0,-53.95 43.73,-97.68 97.68,-97.68z"/>
  <path class="fil0" d="M1274.94 1977.51c0,12.11 0.08,27.31 8.96,27.31 8.88,0 10.83,-8.71 10.83,-17.41 0,-19.7 1.79,-93.16 2.1,-159.19 32.73,6.94 63.45,20.75 93.64,43.39 20.09,15.07 27.96,-3.77 18.23,-11.69 -33.68,-27.36 -70.51,-43.64 -110.92,-51.58 -0.01,-20.4 0.42,-37.92 -0.12,-53.7 -2.07,-59.85 -44.32,-82.42 -79.81,-28.09 -13.84,21.19 -23.82,48.96 -35.2,83.17 -79.52,19.1 -152.49,77.44 -184.06,168.07 -6.53,18.75 13.6,28.39 18.91,9.26 20.49,-73.76 82.65,-131.07 157.6,-153.75 -26.55,87.02 -47.56,198.39 -68.8,286.95 -10.56,44.03 -27.12,169.6 31.18,190.73 41.74,15.13 56.46,-45.26 81.66,-70.46 12.6,-12.6 4.45,-35.78 -15.15,-13.71 -19.65,22.13 -35.9,71.7 -53.64,66.41 -44.05,-13.13 -35.16,-101.93 -16.7,-203.06 16.8,-92.02 44.35,-194.33 61.79,-257.22 7.18,-25.9 28.72,-120.36 64.71,-109.33 23.2,7.11 20.78,53.91 19.8,105 -1.1,57.57 -5.01,122.62 -5.01,148.89z"/>
  <path class="fil4" d="M752.01 1297.65c-8.47,8.19 -29.98,-5.88 -20.38,-32.21 10.09,-27.65 -1.99,-53.02 -30.43,-60.63 25.9,17.1 22.49,41.35 13.2,64.49 -10.97,27.32 19.68,49.94 39.77,41.13 38.13,-16.71 20.25,-45.25 29.8,-73.29 6.33,-18.58 19.64,-35.37 53.15,-46.71 -81.79,0 -54.37,77.49 -85.11,107.22z"/>
  <path class="fil4" d="M772.13 1256.97c-7.66,7.41 -27.13,-5.32 -18.44,-29.15 9.13,-25.02 -1.81,-47.98 -27.54,-54.87 23.44,15.47 20.35,37.42 11.94,58.36 -9.92,24.72 17.81,45.19 35.99,37.22 34.5,-15.12 18.32,-40.95 26.97,-66.32 5.73,-16.81 17.77,-32.01 48.1,-42.27 -74.02,0 -49.21,70.13 -77.02,97.03z"/>
  <path class="fil0" d="M1090.63 959.92c-15.05,65.64 -101.43,253.61 -221.47,224.97 -72.58,-17.31 -97.69,-191.85 -76.56,-296.91 -9.17,-8.91 -17.62,-18.54 -25.22,-28.9l29.23 -13.45c33.9,39.93 83.08,66.03 133.69,79.58l12.74 -66.21c-37.03,-12.72 -67.03,-51.03 -60.87,-76.84 10.86,-45.53 183.89,-7.14 186.06,34.81 1.51,29.2 -52.51,56.47 -93.82,51.68l-12.2 63.43c58.89,9.71 115.81,2.82 148.98,-18.7l27.84 29.7c-15.26,7.02 -31.51,12.63 -48.39,16.84z"/>
  <path class="fil3" d="M975.23 1110.56c-36.1,-41.48 -88.47,-66.88 -142.91,-33.41 2.55,92.11 102.63,107.86 142.91,33.41z"/>
  <path class="fil7" d="M1011.16 800.72c-0.31,-11.32 -71.34,-25.25 -74.52,-11.05 -3.53,15.81 75.14,33.58 74.52,11.05z"/>
  <polygon class="fil8" points="1068.65,610.94 988.13,301.92 993.8,504.98 928.84,486.65 1000.55,719.5 1012.05,586.4 "/>
  <path class="fil5" d="M1556.38 1513.6c-76.3,85.04 -98.88,101.71 -179.58,152.57 -3.28,-14.24 -8.39,-31.31 -14.88,-44.82 91.52,-40.47 242.48,-182.55 291.38,-256.32 3.82,-5.76 -22.87,66.04 -96.93,148.58z"/>
  <path class="fil5" d="M189.05 1230.44c65.56,128.44 186.07,239.05 251.22,307.71 2.26,-43.48 -1.61,-60.73 0.14,-81.5 -79.24,-35.61 -212.45,-168.82 -251.36,-226.21z"/>
  <path class="fil5" d="M1924.09 1598.64c37.47,-93.68 89.91,-168.05 203.43,-171.04 -28.52,12.81 -64.16,22.29 -116.03,78.9 -51.87,56.62 -54.69,159.54 -64.37,223.47 -9.67,63.93 -49.67,297.65 -131.67,340.31 -1.51,0.78 -65.81,-7.6 -105.3,-21.06 213.94,-175.29 178.42,-361.77 213.94,-450.58z"/>
  <path class="fil9" d="M1170.19 565.68c-13.35,41.25 153.42,71.46 166.16,34.12 12.75,-37.33 -152.82,-75.37 -166.16,-34.12z"/>
  <path class="fil9" d="M709.95 473.69c-15.24,41.36 150.02,79.05 164.48,41.64 14.46,-37.41 -149.24,-83 -164.48,-41.64z"/>
  <path class="fil5" d="M592.05 1156.17c-62.15,-28.18 -148.77,-97.89 -180.39,-138.83 -31.61,-40.94 -73.71,-102.11 -86.83,-166.95 -176.94,-101.87 37.72,243.43 267.21,305.78z"/>
  <path class="fil8" d="M1551.68 1022.63c-3.35,2.95 9.42,-9.98 21.99,-25 12.57,-15.01 23.99,-34.25 31.23,-31.41 8.39,1.92 4.22,28.43 16.75,33.58 9.4,3.86 32.75,-9.44 42.13,-4.56 12.8,6.65 3.08,28.55 8.97,35.56 -8.5,7.91 -4.8,-18.3 -19.21,-22.77 -6.37,-1.98 -28.67,18.37 -41.71,13.75 -13.05,-4.61 -7.44,-16.51 -16.31,-18.13 -11.24,-2.05 -26.64,44.4 -112.64,99.98 -83.56,54 -198.39,141.33 -315.2,280.43 30.49,-62.57 77.58,-123.63 133.11,-174.74 92.94,-85.53 203.01,-148.9 250.88,-186.71z"/>
  <path class="fil8" d="M2017.34 1388.2c-34.99,-0.38 -134.21,22.64 -244.21,121.64 -88.8,79.92 -106.55,159.74 -159.83,257.42 22.93,-103.18 49.22,-186.76 104.47,-248.83 73.08,-82.1 185.78,-126.69 299.56,-130.22z"/>
  <path class="fil5" d="M465.27 1554.03c2.47,133.41 -119.48,400.39 -127.29,566.52 40.96,-148.94 98.99,-222.84 127.62,-357.49 11.2,-52.68 24.39,-154.43 -0.33,-209.03z"/>
  <path class="fil5" d="M1182.64 1809.73c-69.37,28.5 -146.57,55.32 -184.06,168.07 15.96,-64.81 55.25,-166.03 192.29,-192.18 -1.56,4.44 -5.67,15.16 -8.24,24.12z"/>
  <path class="fil5" d="M342.61 664.58c20.32,-58.06 42.85,-91.44 71.6,-132.72 28.74,-41.28 58.4,-66.38 79.35,-89.96 0.82,-59.85 -2.12,-215.63 16.03,-290.26 18.15,-74.63 52.8,-120.38 107.47,-123.75 -113.59,49.03 -91.32,312.63 -87.16,425.21 -62.16,44.4 -125.99,189.09 -134.87,215.73 -14.06,-4.27 -29.77,-4.4 -52.42,-4.25z"/>
  <path class="fil8" d="M1474.06 230.89c73.4,-23.03 132.1,-13.36 156.17,15.64 61.75,74.39 -38.53,281.18 -88.8,390.73 31,52.37 47.88,197.57 34.99,278.39 -12.7,-6.84 -35.75,-19.04 -60.62,-25.14 26.45,-99.97 10.97,-171.08 -9.07,-259.81 39,-72.85 146.12,-284.21 119.71,-346.37 -26.41,-62.16 -87.63,-59.54 -152.38,-53.43z"/>
  <path class="fil5" d="M555.72 2599.79c45.22,28.96 107.38,28.96 124.32,26.64 0,36.48 -0.14,67.27 -3.51,101.59 -11.23,114.32 -72.99,93.32 -117.2,-0.8 -7.9,-60.92 -5.84,-98.26 -3.61,-127.43z"/>
  <path class="fil5" d="M1297.77 1808.35c52.96,18.33 84.63,30.06 110.92,51.58 -44.05,-39.28 -64.46,-49.79 -110.85,-68.54 0.29,4.72 -0.05,7.77 -0.07,16.96z"/>
 </g>
</svg>
