<?xml version="1.0" encoding="UTF-8"?>
<!DOCTYPE svg PUBLIC "-//W3C//DTD SVG 1.1//EN" "http://www.w3.org/Graphics/SVG/1.1/DTD/svg11.dtd">
<!-- Creator: CorelDRAW 2020 (64-Bit) -->
<svg xmlns="http://www.w3.org/2000/svg" xml:space="preserve" width="102.61mm" height="138.939mm" version="1.1" style="shape-rendering:geometricPrecision; text-rendering:geometricPrecision; image-rendering:optimizeQuality; fill-rule:evenodd; clip-rule:evenodd"
viewBox="0 0 1235.06 1672.33"
 xmlns:xlink="http://www.w3.org/1999/xlink"
 xmlns:xodm="http://www.corel.com/coreldraw/odm/2003">
 <defs>
  <style type="text/css">
   <![CDATA[
    .str0 {stroke:black;stroke-width:4.25;stroke-miterlimit:22.9256}
    .fil4 {fill:none}
    .fil6 {fill:#E6E7E8}
    .fil8 {fill:#FCF182}
    .fil9 {fill:black}
    .fil0 {fill:black}
    .fil5 {fill:#F7BA12}
    .fil11 {fill:#FDFDFC}
    .fil1 {fill:#FED325}
    .fil10 {fill:#FEFFFD}
    .fil3 {fill:red}
    .fil7 {fill:#FFFFFB}
    .fil2 {fill:white}
   ]]>
  </style>
 </defs>
 <g id="Capa_x0020_1">
  <metadata id="CorelCorpID_0Corel-Layer"/>
  <path class="fil0 str0" d="M1094.53 457.38l-40.76 10.19c20.38,-76.43 -23.11,-157.96 -89.35,-219.1 5.1,-40.76 2.72,-229.3 -63.52,-244.58 -59.67,-13.77 -127.39,56.05 -152.86,101.91 -81.53,-20.38 -188.53,-15.29 -264.96,56.05 -61.15,-45.86 -157.96,-66.24 -193.63,-30.57 -43.31,43.31 12.92,183.44 48.58,239.49 -25.48,61.15 -28.2,112.1 -18.01,173.24 -5.09,-2.45 -11.1,-13.22 -16,-9.55 -6.93,5.19 2.81,21.34 -4.39,24.84 -7.2,3.5 -20.78,-10.69 -30.57,-5.1 -9.79,5.6 -2.4,21.91 -5.1,25.48 -2.69,3.56 -20.38,-5.1 -25.48,0 -5.1,5.1 4.18,21.59 0,25.48 -4.48,4.17 -12.88,-0.53 -15.29,5.1 -3.34,7.8 2.78,22.72 0,25.48 -2.78,2.76 -16.44,-1.81 -15.29,5.1 1.97,11.84 15.09,16.11 18.13,27.73 26.29,100.54 73.59,191.37 155.12,257.61 -11.95,16.73 -24.8,47.8 -31.35,83.68 -7.42,40.62 -7.34,87.35 0.77,125.23 -17.33,0 -18.81,-66.97 -20.53,-78.89 -12.73,-88.31 -45.58,-179.64 -91.89,-214.37 -64.45,-48.33 -175.89,-85.95 -234.08,-27.76 -10.76,10.76 24.45,19.56 50.95,40.76 25.48,20.38 38.9,45.86 44.45,86.56 5.69,41.73 8.92,82.74 19.1,122.35 7.23,28.16 19.28,57.94 31.65,83.5 46.66,96.43 169.77,155.98 241.1,161.08 25.48,35.67 50.45,65.6 89.81,88.56 61.14,35.67 124.62,44.87 195.54,54.12 46.58,6.07 96.81,50.95 157.96,56.05 0,56.05 3.96,158.44 40.76,163.05 40.45,5.07 56.05,-112.1 50.95,-183.44 96.81,-45.86 141.23,-162.16 132.48,-249.68 -11.67,-116.72 -66.24,-239.48 -76.43,-336.3 60.43,-58.39 120.81,-120.34 157.96,-193.63 25.81,-50.93 54.87,-133.94 66.24,-157.96 11.38,-24.02 30.57,-30.57 25.48,-35.67 -5.1,-5.1 -16.12,2.36 -20.38,-5.1 -4.26,-7.46 5.1,-25.48 0,-30.55 -5.1,-5.07 -15.29,5.07 -17.68,0 -2.39,-5.07 5.4,-20.1 -2.71,-25.5 -8.1,-5.4 -19.81,8.06 -25.48,5.1 -7.52,-3.93 2.27,-16.81 -5.1,-20.38 -7.37,-3.57 -15.49,12.19 -25.48,10.19 -7.44,-1.49 -13.02,-12.03 -20.38,-10.19 -9.32,2.33 -12.52,18.42 -20.38,20.38z"/>
  <path class="fil1" d="M350.6 365.66c-25.48,-50.96 -86.62,-183.44 -50.96,-224.2 35.67,-40.76 142.67,5.1 183.44,35.67 79.42,-68.07 171.62,-87.87 270.06,-50.95 15.29,-35.67 92.89,-140.35 152.86,-101.91 59.97,38.44 39.62,177.3 45.86,229.29 40.76,40.76 80.68,90.73 91.72,147.77 19.58,101.17 -66.88,212.42 -157.96,249.68 -133.14,54.47 -239.49,66.24 -361.78,61.15 -45.86,-61.15 -183.44,-132.48 -188.53,-157.96 -15.33,-76.64 -5.16,-116.95 15.29,-188.53z"/>
  <path class="fil2" d="M1038.48 381.33c2.08,6.56 3.8,13.23 5.1,19.99 19.58,101.17 -66.88,212.42 -157.96,249.68 -133.14,54.47 -239.49,66.24 -361.78,61.15 -45.86,-61.15 -183.44,-132.48 -188.53,-157.96 -2.04,-10.19 -3.62,-19.73 -4.79,-28.79 95.44,-56.3 146.42,48.2 188.23,3.31 44.5,-47.77 80.9,-96.53 152.86,-112.1 67.46,-14.59 122.56,8.13 173.24,40.76 18.18,11.7 35.67,10.19 50.95,-5.1 35.56,-35.56 94.39,-75 142.66,-70.95z"/>
  <path class="fil3" d="M464.25 656.17c-28.88,-22.29 -60.95,-43.74 -85.89,-61.78 6.84,-23.24 28.32,-40.2 53.77,-40.2 30.96,0 56.05,25.09 56.05,56.05 0,19.01 -9.46,35.8 -23.93,45.94z"/>
  <path class="fil1" d="M443.38 954.96c-101.11,-56.1 -174.92,-176.73 -203.8,-287.05 -5.1,-6.79 -15.29,-13.45 -15.29,-20.38 0,-6.93 12.99,0.65 15.29,-5.1 2.3,-5.74 -8.8,-13.32 -5.1,-20.38 3.7,-7.06 13.1,1.96 17.88,-4 4.77,-5.97 -1.79,-15.03 2.5,-21.47 4.3,-6.45 15.43,-0.15 20.38,-5.1 4.95,-4.95 -1.91,-16.88 5.1,-20.38 7,-3.5 16.75,5.79 24.23,2.59 7.47,-3.2 4.23,-18.21 9.96,-19.36 5.73,-1.15 20.27,25.03 32.28,34.19 31.09,23.71 64.35,43.97 95.51,67.58 54.36,41.18 89.27,74.18 119.16,132.33 8.34,16.23 23.51,20.53 18.42,5.25 -5.1,-15.29 -33.57,-55.55 -56.05,-81.53 122.29,5.1 228.64,-6.68 361.78,-61.15 -6.46,2.62 -1.16,19.11 15.29,10.19 66.13,-35.87 129.17,-94.03 147.77,-173.24 12.7,-6.64 34.79,-17.98 50.15,-13.53 5.1,-6.79 8.35,-18.07 15.29,-20.38 6.93,-2.31 8.43,10.19 15.29,10.19 6.86,0 14.07,-9.65 20.84,-8.53 6.77,1.13 2.76,13.51 8.98,15.59 6.23,2.08 16.07,-8.25 22.18,-3.36 6.11,4.89 -1.46,18.07 2.84,23.44 4.3,5.37 14.37,-5.7 16.81,1.62 2.44,7.32 -6.92,19.89 -3.69,25.45 3.23,5.57 13.06,-1.84 14.91,5.58 1.85,7.41 -8.01,8.92 -11.54,16.64 -29.96,65.55 -52.74,133.8 -91.72,195.46 -34.75,54.96 -87.57,103.93 -126.57,146.47l0 -44.92c0,-15.29 -16.14,-15.89 -16.14,4.49 0,71.52 10.35,130.11 31.43,191.01 24.77,71.58 40.77,142.67 45.86,208.91 9.12,118.6 -75.69,213.24 -142.67,239.49 -66.98,26.25 -103.65,2.5 -142.67,-15.29 -72.57,-33.08 -141.54,-34 -214.01,-56.05 -69.04,-21.01 -137.47,-80.77 -163.16,-149.02 -19.74,-52.44 -24.29,-121.81 -25.37,-172 -1.32,-61.24 10.19,-117.2 32.99,-156.26 16.18,11.32 32.35,22.65 48.53,33.97 9.2,6.44 17.31,-5.78 6.16,-11.96z"/>
  <path class="fil4" d="M685.64 706.09c32.12,-4.33 64.51,-10.83 98.06,-20.05l0.01 0.63c0,28.14 -22.81,50.95 -50.95,50.95 -21.26,0 -39.48,-13.03 -47.12,-31.54z"/>
  <path class="fil5" d="M518.75 1028.06c41.88,0 59.73,137.86 65.83,171.26 10.6,58.03 15.69,108.98 -9.58,116.52 -10.18,3.03 -19.5,-25.4 -30.78,-38.11 -11.25,-12.67 -15.92,0.64 -8.7,7.86 14.46,14.46 22.91,49.11 46.86,40.43 33.45,-12.13 23.95,-84.18 17.89,-109.44 -12.19,-50.82 -24.24,-114.72 -39.48,-164.65 43.01,13.01 78.68,45.9 90.43,88.22 1.27,4.57 4.02,6.28 6.52,5.94 1.39,4.8 2.66,9.62 3.68,14.45 24.44,115.52 253.95,91.53 379.71,56.22 0.99,8.51 1.8,16.95 2.45,25.31 9.12,118.6 -75.69,213.24 -142.67,239.49 -66.98,26.25 -103.65,2.5 -142.67,-15.29 -72.57,-33.08 -141.54,-34 -214.01,-56.05 -59.44,-18.09 -118.42,-64.9 -150.08,-121.12 45.79,-41.66 75.2,-73.83 99.68,-141.03 0.95,1.4 2.39,2.28 4.53,2.28 5.1,0 5.14,-8.72 5.14,-15.67 0,-22 -14.81,-106.62 15.24,-106.62z"/>
  <path class="fil0" d="M354.5 1071.83c0.55,-23.76 3.1,-46.5 7.53,-67.5 68.72,-7.47 104.75,87.37 -7.53,67.5z"/>
  <path class="fil1" d="M320.03 1079.02c0,11.95 2.07,28.22 6.47,40.23 6.86,18.73 14.8,32.34 21.01,32.34 0,61.15 7.53,103.41 38.1,144.18 -40.76,-5.1 -104.5,-34.64 -162.39,-79.17 -66.24,-50.95 -93.83,-145.15 -107,-234.39 -3.46,-23.4 -4.36,-48.14 -9.86,-69.42 -11.6,-44.91 -43.65,-76.55 -92.05,-93.64 30.57,-50.95 224.2,-15.29 264.96,101.91 17.96,51.63 38.67,107.12 40.76,157.96z"/>
  <path class="fil0" d="M330.73 1126.14c6.23,15.05 12.99,25.34 18.44,25.34 0,62.28 7.67,105.33 38.81,146.85 -41.52,-5.19 -106.43,-35.28 -165.4,-80.64 -11.18,-8.6 -21.27,-18.42 -30.4,-29.21l61.54 -12.31 15.57 -51.9 57.09 20.76 4.36 -18.89z"/>
  <path class="fil0" d="M370.98 299.42c15.29,-35.67 40.76,-66.24 66.24,-96.81 -81.53,-61.15 -132.48,-15.29 -66.24,96.81z"/>
  <path class="fil0" d="M804.09 131.27c45.51,14.07 70.12,40.79 96.81,66.24 14.69,-102.8 -10.54,-181.27 -96.81,-66.24z"/>
  <path class="fil2" d="M885.62 651c-8.91,20.87 0.86,152.69 -4.19,204.04 -2.47,25.12 -8.06,136.82 -25.54,167.92 -58.4,103.86 -164.09,-38.71 -192.87,-99.11 -21.57,-45.27 -70.39,-116.64 -98.58,-158 -7.77,-11.4 -28.62,-39.24 -40.6,-53.71 -9.28,-11.21 127.72,-25.1 172.88,-25.1 49.47,0 141.69,-16.98 184.16,-42.74 5.78,-3.5 6.26,3.11 4.74,6.69z"/>
  <path class="fil1" d="M900.15 1627.64c11.94,-32.03 21.13,-95.13 16.04,-135.9 -21.96,12.56 -46.73,17.15 -71.34,15.29 0,29.06 1.69,101.29 15.72,135.53 9.27,22.63 29.53,12.01 39.57,-14.92z"/>
  <path class="fil6" d="M1003.75 553.55c-39.91,45.25 -46.55,64.62 -118.13,97.45 -146.26,67.11 -203.52,65.82 -315.08,56.05 -5.65,-7.54 -12.7,-15.23 -20.73,-22.97 132.35,37.96 295.68,-18.7 360.81,-67.42 65.13,-48.71 128.23,-144.43 97.78,-232.9 14.52,-3.4 21.79,-2.45 30.07,-2.44 17.26,54.34 5.19,126.96 -34.73,172.22z"/>
  <path class="fil3" d="M967.15 431.9c-30.96,0 -56.05,25.09 -56.05,56.05 0,30.96 25.09,56.05 56.05,56.05 30.96,0 56.05,-25.09 56.05,-56.05 0,-30.96 -25.09,-56.05 -56.05,-56.05z"/>
  <path class="fil0" d="M503.51 1134.68c0,6.95 -0.04,15.67 -5.14,15.67 -5.1,0 -6.21,-5 -6.21,-9.99 0,-11.3 -1.03,-53.45 -1.2,-91.34 -18.78,3.98 -36.41,11.91 -53.73,24.9 -11.53,8.64 -16.05,-2.17 -10.46,-6.71 19.32,-15.7 40.46,-25.04 63.64,-29.6 0.01,-11.71 -0.24,-21.76 0.07,-30.81 1.19,-34.34 25.43,-47.29 45.79,-16.12 7.94,12.16 13.67,28.09 20.2,47.72 45.63,10.96 87.5,44.44 105.61,96.44 3.75,10.76 -7.8,16.29 -10.85,5.31 -11.75,-42.33 -47.42,-75.21 -90.43,-88.22 15.23,49.93 27.29,113.83 39.48,164.65 6.06,25.26 15.56,97.31 -17.89,109.44 -23.95,8.68 -32.4,-25.97 -46.86,-40.43 -7.23,-7.23 -2.55,-20.53 8.7,-7.86 11.28,12.7 20.6,41.14 30.78,38.11 25.27,-7.53 20.18,-58.49 9.58,-116.52 -9.64,-52.8 -25.45,-111.5 -35.45,-147.59 -4.12,-14.86 -16.48,-69.06 -37.13,-62.73 -13.31,4.08 -11.92,30.93 -11.36,60.25 0.63,33.03 2.87,70.36 2.87,85.43z"/>
  <path class="fil4" d="M803.57 744.58c4.86,4.7 17.2,-3.37 11.69,-18.48 -5.79,-15.87 1.14,-30.42 17.46,-34.79 -14.86,9.81 -12.9,23.73 -7.57,37 6.29,15.67 -11.29,28.65 -22.82,23.6 -21.88,-9.59 -11.62,-25.97 -17.1,-42.05 -3.63,-10.66 -11.27,-20.3 -30.5,-26.8 46.93,0 31.2,44.46 48.83,61.52z"/>
  <path class="fil4" d="M792.02 721.24c4.4,4.25 15.57,-3.05 10.58,-16.73 -5.24,-14.36 1.04,-27.53 15.8,-31.49 -13.45,8.88 -11.68,21.47 -6.85,33.49 5.69,14.18 -10.22,25.93 -20.65,21.36 -19.8,-8.67 -10.51,-23.5 -15.47,-38.06 -3.29,-9.64 -10.2,-18.37 -27.6,-24.26 42.47,0 28.23,40.24 44.19,55.68z"/>
  <path class="fil0" d="M609.26 550.8c8.63,37.67 58.2,145.52 127.08,129.09 41.64,-9.93 56.06,-110.08 43.93,-170.37 5.26,-5.11 10.11,-10.64 14.47,-16.59l-16.77 -7.72c-19.45,22.91 -47.67,37.89 -76.71,45.66l-7.31 -37.99c21.25,-7.3 38.46,-29.28 34.93,-44.09 -6.23,-26.13 -105.52,-4.1 -106.76,19.97 -0.87,16.76 30.13,32.4 53.83,29.66l7 36.4c-33.79,5.57 -66.45,1.62 -85.49,-10.73l-15.97 17.04c8.76,4.03 18.08,7.24 27.77,9.67z"/>
  <path class="fil3" d="M675.48 637.24c20.71,-23.8 50.77,-38.38 82,-19.17 -1.46,52.85 -58.89,61.89 -82,19.17z"/>
  <path class="fil7" d="M654.86 459.45c0.18,-6.5 40.94,-14.49 42.76,-6.34 2.03,9.07 -43.11,19.27 -42.76,6.34z"/>
  <polygon class="fil8" points="621.88,350.55 668.08,173.24 664.82,289.75 702.1,279.24 660.95,412.84 654.36,336.47 "/>
  <path class="fil5" d="M342.02 868.5c43.78,48.8 56.74,58.36 103.04,87.54 1.88,-8.17 4.81,-17.96 8.54,-25.72 -52.51,-23.22 -139.13,-104.75 -167.19,-147.08 -2.19,-3.31 13.12,37.89 55.62,85.25z"/>
  <path class="fil5" d="M1126.58 706.02c-37.62,73.7 -106.77,137.16 -144.15,176.56 -1.3,-24.95 0.92,-34.85 -0.08,-46.76 45.47,-20.44 121.9,-96.87 144.23,-129.8z"/>
  <path class="fil5" d="M131.03 917.29c-21.5,-53.75 -51.59,-96.43 -116.72,-98.14 16.36,7.35 36.82,12.79 66.58,45.27 29.76,32.49 31.38,91.54 36.93,128.22 5.55,36.68 28.5,170.79 75.55,195.27 0.87,0.45 37.76,-4.36 60.42,-12.08 -122.76,-100.58 -102.38,-207.58 -122.76,-258.54z"/>
  <path class="fil5" d="M895.35 663.4c35.66,-16.17 85.37,-56.17 103.5,-79.66 18.14,-23.49 42.29,-58.59 49.82,-95.8 101.53,-58.45 -21.64,139.68 -153.33,175.45z"/>
  <path class="fil8" d="M344.72 586.78c1.92,1.69 -5.41,-5.73 -12.62,-14.34 -7.21,-8.61 -13.76,-19.65 -17.92,-18.02 -4.81,1.1 -2.42,16.32 -9.61,19.27 -5.39,2.21 -18.79,-5.41 -24.18,-2.62 -7.35,3.82 -1.77,16.38 -5.15,20.41 4.88,4.54 2.75,-10.5 11.02,-13.07 3.66,-1.13 16.45,10.54 23.93,7.89 7.49,-2.65 4.27,-9.47 9.36,-10.4 6.45,-1.18 15.29,25.48 64.63,57.37 47.95,30.99 113.83,81.1 180.86,160.91 -17.49,-35.9 -44.51,-70.94 -76.38,-100.26 -53.33,-49.08 -116.49,-85.44 -143.96,-107.13z"/>
  <path class="fil8" d="M77.52 796.54c20.08,-0.22 77.01,12.99 140.13,69.79 50.95,45.86 61.14,91.66 91.71,147.71 -13.16,-59.2 -28.24,-107.16 -59.95,-142.78 -41.93,-47.11 -106.6,-72.7 -171.89,-74.72z"/>
  <path class="fil9" d="M529.51 434.71c29.84,-7 48.36,-36.87 41.36,-66.71 -7,-29.84 -36.87,-48.36 -66.71,-41.36 -29.84,7 -48.36,36.87 -41.36,66.71 7,29.84 36.87,48.36 66.71,41.36z"/>
  <path class="fil5" d="M968.09 891.7c-1.42,76.55 68.56,229.74 73.04,325.07 -23.5,-85.46 -56.8,-127.86 -73.23,-205.12 -6.43,-30.23 -13.99,-88.61 0.19,-119.94z"/>
  <path class="fil5" d="M556.47 1038.41c39.81,16.36 84.1,31.74 105.61,96.44 -9.15,-37.19 -31.7,-95.27 -110.34,-110.27 0.9,2.55 3.26,8.7 4.73,13.84z"/>
  <path class="fil5" d="M1038.48 381.33c-11.66,-33.31 -24.59,-52.47 -41.08,-76.16 -16.49,-23.69 -33.51,-38.09 -45.53,-51.62 -0.47,-34.34 1.22,-123.73 -9.2,-166.55 -10.42,-42.82 -30.29,-69.07 -61.66,-71.01 65.18,28.13 52.4,179.38 50.01,243.98 35.67,25.48 72.29,108.5 77.39,123.79 8.07,-2.45 17.08,-2.53 30.08,-2.44z"/>
  <path class="fil8" d="M389.26 132.48c-42.12,-13.22 -75.8,-7.67 -89.61,8.97 -35.43,42.69 22.11,161.34 50.96,224.2 -17.79,30.05 -27.47,113.36 -20.08,159.74 7.29,-3.93 20.51,-10.93 34.78,-14.43 -15.18,-57.36 -6.29,-98.17 5.21,-149.08 -22.38,-41.8 -83.84,-163.08 -68.69,-198.75 15.15,-35.67 50.28,-34.16 87.43,-30.66z"/>
  <path class="fil5" d="M916.19 1491.75c-25.95,16.62 -61.62,16.62 -71.34,15.29 0,20.93 0.08,38.6 2.01,58.29 6.44,65.6 41.88,53.55 67.25,-0.46 4.53,-34.95 3.35,-56.38 2.07,-73.12z"/>
  <path class="fil5" d="M490.41 1037.62c-30.39,10.52 -48.56,17.25 -63.64,29.6 25.28,-22.54 36.99,-28.57 63.61,-39.33 -0.17,2.71 0.03,4.46 0.04,9.73z"/>
  <path class="fil9" d="M806.26 375.7c-29.84,7 -59.71,-11.52 -66.71,-41.36 -7,-29.84 11.52,-59.71 41.36,-66.71 29.84,-7 59.71,11.52 66.71,41.36 7,29.84 -11.52,59.71 -41.36,66.71z"/>
  <path class="fil10" d="M729.52 235.68c3.9,26 102.6,-2.67 99.43,-26.39 -3.17,-23.71 -103.33,0.39 -99.43,26.39z"/>
  <path class="fil11" d="M514.19 332.07c13.82,-2.28 26.88,7.08 29.15,20.91 2.28,13.82 -7.08,26.88 -20.91,29.15 -13.82,2.28 -26.88,-7.08 -29.15,-20.91 -2.28,-13.82 7.08,-26.88 20.91,-29.15z"/>
  <path class="fil10" d="M561.51 275.09c8.06,25.02 -93.09,43.23 -100.79,20.58 -7.7,-22.65 92.72,-45.6 100.79,-20.58z"/>
  <path class="fil11" d="M490.5 391.24c7.49,-1.23 14.55,3.83 15.79,11.32 1.23,7.49 -3.84,14.55 -11.32,15.79 -7.49,1.23 -14.55,-3.84 -15.79,-11.32 -1.23,-7.49 3.83,-14.55 11.32,-15.79z"/>
  <path class="fil11" d="M539.54 394.8c3.42,-0.56 6.64,1.75 7.2,5.17 0.56,3.41 -1.75,6.64 -5.17,7.2 -3.42,0.56 -6.64,-1.75 -7.2,-5.16 -0.56,-3.42 1.75,-6.64 5.16,-7.2z"/>
  <path class="fil11" d="M779.58 275.63c-13.81,2.35 -23.11,15.45 -20.76,29.26 2.35,13.81 15.45,23.11 29.26,20.76 13.81,-2.35 23.11,-15.45 20.76,-29.26 -2.35,-13.81 -15.45,-23.11 -29.26,-20.76z"/>
  <path class="fil11" d="M821.24 323.87c-7.48,1.27 -12.51,8.36 -11.24,15.84 1.27,7.48 8.36,12.51 15.84,11.24 7.48,-1.27 12.51,-8.36 11.24,-15.84 -1.27,-7.48 -8.36,-12.51 -15.84,-11.24z"/>
  <path class="fil11" d="M776.02 343.2c-3.41,0.58 -5.71,3.82 -5.13,7.23 0.58,3.41 3.82,5.71 7.23,5.13 3.41,-0.58 5.71,-3.82 5.13,-7.23 -0.58,-3.41 -3.82,-5.71 -7.23,-5.13z"/>
 </g>
</svg>
