<?xml version="1.0" encoding="UTF-8"?>
<!DOCTYPE svg PUBLIC "-//W3C//DTD SVG 1.1//EN" "http://www.w3.org/Graphics/SVG/1.1/DTD/svg11.dtd">
<!-- Creator: CorelDRAW 2020 (64-Bit) -->
<svg xmlns="http://www.w3.org/2000/svg" xml:space="preserve" width="1200px" height="1200px" version="1.1" style="shape-rendering:geometricPrecision; text-rendering:geometricPrecision; image-rendering:optimizeQuality; fill-rule:evenodd; clip-rule:evenodd"
viewBox="0 0 857.09 857.27"
 xmlns:xlink="http://www.w3.org/1999/xlink"
 xmlns:xodm="http://www.corel.com/coreldraw/odm/2003">
 <defs>
  <style type="text/css">
   <![CDATA[
    .fil1 {fill:#00CCFF}
    .fil3 {fill:#333333}
    .fil2 {fill:#33CC33}
    .fil0 {fill:#FFCC00}
    .fil4 {fill:white}
   ]]>
  </style>
 </defs>
 <g id="Capa_x0020_1">
  <metadata id="CorelCorpID_0Corel-Layer"/>
  <path class="fil0" d="M295.74 21c-169.55,55.21 -292.68,213.25 -295.74,400.49l178.62 0c2.99,-106.78 72.94,-196.81 169.36,-229.61l-52.24 -170.88z"/>
  <path class="fil1" d="M546.39 16.42c-37.44,-10.69 -76.97,-16.42 -117.84,-16.42 -41.36,0 -81.33,5.88 -119.16,16.81l52.24 170.85c21.3,-5.9 43.74,-9.06 66.92,-9.06 22.7,0 44.69,3.04 65.59,8.71l52.25 -170.89z"/>
  <path class="fil2" d="M857.09 421.49c-3.07,-187.72 -126.82,-346.08 -297.03,-400.9l-52.24 170.84c97.08,32.44 167.65,122.8 170.65,230.06l178.62 0z"/>
  <path class="fil3" d="M428.55 857.27c234.34,0 424.72,-188.06 428.54,-421.49l-178.62 0c-3.78,134.79 -114.22,242.89 -249.92,242.89 -135.71,0 -246.15,-108.1 -249.93,-242.89l-178.62 0c3.82,233.43 194.2,421.49 428.55,421.49z"/>
  <path class="fil4" d="M427.84 540.8c-49.49,0 -100.12,-8.49 -122.82,-60.96 -10.45,-24.16 -1.01,-53.33 17.12,-77.22 -4.05,-13.05 -14.27,-74.94 6.54,-83.81 18.74,-7.98 44.98,10.93 56,24.47 12.62,-5.66 27.66,-9.63 43.16,-9.92 15.5,0.29 30.53,4.26 43.15,9.92 11.02,-13.54 37.27,-32.45 56.01,-24.47 20.8,8.87 10.58,70.76 6.54,83.81 18.12,23.89 27.56,53.07 17.11,77.22 -22.69,52.47 -73.33,60.96 -122.81,60.96l0 0z"/>
 </g>
</svg>
